<?xml version="1.0" encoding="UTF-8"?>
<svg id="Capa_1" xmlns="http://www.w3.org/2000/svg" version="1.1" viewBox="0 0 362.9 123.7">
  <!-- Generator: Adobe Illustrator 29.4.0, SVG Export Plug-In . SVG Version: 2.1.0 Build 152)  -->
  <defs>
    <style>
      .st0 {
        fill: #282828;
      }
    </style>
  </defs>
  <polygon class="st0" points="124.9 38.2 133 52.3 133.7 52.3 141.9 38.2 141.9 54.8 143.3 54.8 143.3 35.4 142.1 35.4 133.4 50.4 124.7 35.4 123.5 35.4 123.5 54.8 124.9 54.8 124.9 38.2"/>
  <path class="st0" d="M160,55c2.4,0,4.3-.7,5.7-2.1,1.4-1.4,2.1-3.5,2.1-6.3v-11.2h-1.4v11.2c0,2.4-.6,4.2-1.7,5.4-1.1,1.2-2.7,1.8-4.7,1.8s-3.6-.6-4.7-1.8c-1.1-1.2-1.7-3-1.7-5.4v-11.2h-1.4v11.2c0,2.8.7,4.9,2.1,6.3,1.4,1.4,3.3,2.1,5.7,2.1Z"/>
  <polygon class="st0" points="191.3 52.3 178 35.4 176.8 35.4 176.8 54.8 178.2 54.8 178.2 37.9 191.5 54.8 192.7 54.8 192.7 35.4 191.3 35.4 191.3 52.3"/>
  <rect class="st0" x="201.8" y="35.4" width="1.4" height="19.5"/>
  <path class="st0" d="M213.4,52.2c.9.9,2,1.6,3.2,2.1,1.2.5,2.6.7,4,.7s2.7-.2,3.9-.7c1.2-.5,2.2-1.1,3.1-2l-.9-.9c-.8.8-1.8,1.4-2.8,1.8s-2.1.5-3.2.5-2.4-.2-3.5-.6c-1.1-.4-2-1-2.8-1.8-.8-.8-1.4-1.7-1.8-2.7-.4-1-.7-2.2-.7-3.4s.2-2.4.7-3.4c.4-1,1-1.9,1.8-2.7.8-.8,1.7-1.4,2.8-1.8,1.1-.4,2.2-.6,3.5-.6s2.2.2,3.2.5,1.9,1,2.8,1.8l.9-.9c-.9-.9-1.9-1.6-3.1-2s-2.5-.7-3.9-.7-2.8.2-4,.7-2.3,1.2-3.2,2.1c-.9.9-1.6,1.9-2.1,3.1-.5,1.2-.8,2.5-.8,3.9s.3,2.7.8,3.9c.5,1.2,1.2,2.2,2.1,3.1Z"/>
  <rect class="st0" x="234.6" y="35.4" width="1.4" height="19.5"/>
  <path class="st0" d="M259.1,45.4c.6-1,.9-2.2.9-3.5s-.3-2.6-.9-3.5c-.6-1-1.5-1.7-2.7-2.2-1.2-.5-2.6-.8-4.2-.8h-7v19.5h1.4v-6.4h5.6c1.6,0,3-.3,4.2-.8,1.2-.5,2.1-1.3,2.7-2.3ZM246.6,47.2v-10.5h5.6c2.1,0,3.7.5,4.8,1.4,1.1.9,1.6,2.2,1.6,3.9s-.5,3-1.6,3.9c-1.1.9-2.7,1.4-4.8,1.4h-5.6Z"/>
  <rect class="st0" x="267.1" y="35.4" width="1.4" height="19.5"/>
  <path class="st0" d="M278.7,52.2c.9.9,2,1.6,3.2,2.1,1.2.5,2.6.7,4,.7s2.8-.2,4-.7c1.2-.5,2.3-1.2,3.2-2.1.9-.9,1.6-1.9,2.1-3.1.5-1.2.8-2.5.8-3.9s-.3-2.7-.8-3.9c-.5-1.2-1.2-2.2-2.1-3.1-.9-.9-2-1.6-3.2-2.1-1.2-.5-2.6-.7-4-.7s-2.8.2-4,.7c-1.2.5-2.3,1.2-3.2,2.1-.9.9-1.6,1.9-2.1,3.1-.5,1.2-.8,2.5-.8,3.9s.3,2.7.8,3.9c.5,1.2,1.2,2.2,2.1,3.1ZM277.9,41.7c.4-1,1-1.9,1.8-2.7.8-.8,1.7-1.4,2.8-1.8,1.1-.4,2.2-.6,3.5-.6s2.4.2,3.5.6c1.1.4,2,1,2.8,1.8.8.8,1.4,1.7,1.8,2.7.4,1,.7,2.2.7,3.4s-.2,2.4-.7,3.4c-.4,1-1,1.9-1.8,2.7-.8.8-1.7,1.4-2.8,1.8-1.1.4-2.2.6-3.5.6s-2.4-.2-3.5-.6c-1.1-.4-2-1-2.8-1.8-.8-.8-1.4-1.7-1.8-2.7-.4-1-.7-2.2-.7-3.4s.2-2.4.7-3.4Z"/>
  <path class="st0" d="M326,36.6c-1.6-.8-3.4-1.3-5.4-1.3h-7.7v19.5h7.7c2.1,0,3.9-.4,5.4-1.3,1.6-.8,2.8-2,3.6-3.5.9-1.5,1.3-3.1,1.3-5s-.4-3.6-1.3-5c-.9-1.5-2.1-2.6-3.6-3.5ZM328.4,49.5c-.7,1.3-1.8,2.3-3.1,3-1.4.7-3,1.1-4.8,1.1h-6.2v-16.9h6.2c1.8,0,3.4.4,4.8,1.1,1.4.7,2.4,1.7,3.1,3,.7,1.3,1.1,2.7,1.1,4.4s-.4,3.1-1.1,4.4Z"/>
  <polygon class="st0" points="351.6 53.6 339.6 53.6 339.6 45.6 350 45.6 350 44.3 339.6 44.3 339.6 36.6 351.2 36.6 351.2 35.4 338.2 35.4 338.2 54.8 351.6 54.8 351.6 53.6"/>
  <path class="st0" d="M136.5,74.7c-.7-.4-1.4-.7-2.2-1-.8-.2-1.6-.5-2.4-.6-.8-.2-1.5-.4-2.2-.6-.7-.2-1.2-.4-1.6-.7-.4-.3-.6-.7-.6-1.2s.1-.8.4-1.1c.2-.3.6-.6,1.2-.8.6-.2,1.3-.3,2.1-.3s1.8.1,2.7.4c.9.3,1.8.6,2.7,1.2l1.4-3.4c-.9-.6-2-1-3.1-1.3-1.2-.3-2.4-.4-3.6-.4-1.8,0-3.4.3-4.6.8-1.2.5-2.1,1.3-2.7,2.2-.6.9-.9,1.9-.9,3s.2,1.9.6,2.6c.4.7,1,1.2,1.6,1.6.7.4,1.4.7,2.2,1,.8.3,1.6.5,2.4.7.8.2,1.5.4,2.2.6.7.2,1.2.4,1.6.8.4.3.6.7.6,1.2s-.1.8-.4,1.1c-.3.3-.7.6-1.2.7-.5.2-1.3.3-2.2.3s-2.3-.2-3.5-.6c-1.1-.4-2.1-.9-3-1.5l-1.5,3.4c.9.7,2,1.2,3.5,1.6,1.4.4,2.9.6,4.5.6s3.4-.3,4.6-.8c1.2-.6,2.1-1.3,2.7-2.2.6-.9.9-1.9.9-3s-.2-1.9-.6-2.5c-.4-.7-1-1.2-1.6-1.6Z"/>
  <path class="st0" d="M148.1,65.1l-8.7,19.5h4.6l1.7-4.2h9l1.7,4.2h4.7l-8.7-19.5h-4.5ZM147.2,77l3.1-7.5,3.1,7.5h-6.2Z"/>
  <polygon class="st0" points="177 76.9 167.3 65.1 163.6 65.1 163.6 84.6 168 84.6 168 72.8 177.7 84.6 181.4 84.6 181.4 65.1 177 65.1 177 76.9"/>
  <path class="st0" d="M199.5,70.3c.6-.6,1.2-1,2-1.3.8-.3,1.6-.4,2.5-.4s1.9.2,2.7.6c.8.4,1.6,1,2.2,1.7l2.9-2.7c-.9-1.1-2.1-2-3.4-2.6s-2.9-.9-4.6-.9-2.9.2-4.2.7c-1.3.5-2.4,1.2-3.4,2.1-1,.9-1.7,2-2.2,3.2-.5,1.2-.8,2.6-.8,4s.3,2.8.8,4c.5,1.2,1.3,2.3,2.2,3.2.9.9,2.1,1.6,3.4,2.1,1.3.5,2.7.7,4.2.7s3.2-.3,4.6-.9c1.4-.6,2.5-1.5,3.4-2.6l-2.9-2.7c-.7.8-1.4,1.4-2.2,1.7-.8.4-1.7.6-2.7.6s-1.7-.1-2.5-.4c-.8-.3-1.4-.7-2-1.3-.6-.6-1-1.2-1.3-2-.3-.8-.5-1.6-.5-2.5s.2-1.8.5-2.5c.3-.8.7-1.4,1.3-2Z"/>
  <path class="st0" d="M220.7,65.1l-8.7,19.5h4.6l1.7-4.2h9l1.7,4.2h4.7l-8.7-19.5h-4.5ZM219.8,77l3.1-7.5,3.1,7.5h-6.2Z"/>
  <polygon class="st0" points="247.4 65.1 242.2 73.8 237 65.1 232.3 65.1 239.8 77.7 239.8 84.6 244.3 84.6 244.3 77.7 251.9 65.1 247.4 65.1"/>
  <polygon class="st0" points="258.3 76.5 267.3 76.5 267.3 73 258.3 73 258.3 68.7 268.5 68.7 268.5 65.1 253.8 65.1 253.8 84.6 268.9 84.6 268.9 81 258.3 81 258.3 76.5"/>
  <polygon class="st0" points="287.5 65.1 270.5 65.1 270.5 68.8 276.7 68.8 276.7 84.6 281.2 84.6 281.2 68.8 287.5 68.8 287.5 65.1"/>
  <path class="st0" d="M295.3,65.1l-8.7,19.5h4.6l1.7-4.2h9l1.7,4.2h4.7l-8.7-19.5h-4.5ZM294.4,77l3.1-7.5,3.1,7.5h-6.2Z"/>
  <polygon class="st0" points="324.1 76.9 314.4 65.1 310.7 65.1 310.7 84.6 315.1 84.6 315.1 72.8 324.8 84.6 328.5 84.6 328.5 65.1 324.1 65.1 324.1 76.9"/>
  <path class="st0" d="M352.7,70.8c-.5-1.2-1.3-2.3-2.2-3.2-1-.9-2.1-1.6-3.4-2.1-1.3-.5-2.7-.8-4.2-.8s-2.9.2-4.2.8c-1.3.5-2.4,1.2-3.4,2.1-1,.9-1.7,2-2.2,3.2-.5,1.2-.8,2.6-.8,4s.3,2.8.8,4c.5,1.2,1.3,2.3,2.2,3.2,1,.9,2.1,1.6,3.4,2.1,1.3.5,2.7.8,4.3.8s2.9-.2,4.2-.8c1.3-.5,2.4-1.2,3.4-2.1,1-.9,1.7-2,2.2-3.2.5-1.2.8-2.6.8-4s-.3-2.8-.8-4ZM348.5,77.4c-.3.8-.7,1.4-1.3,2-.6.6-1.2,1-1.9,1.3-.7.3-1.5.4-2.4.4s-1.7-.1-2.4-.4c-.7-.3-1.4-.7-1.9-1.3-.5-.6-1-1.2-1.3-2-.3-.8-.5-1.6-.5-2.5s.2-1.8.5-2.5c.3-.8.7-1.4,1.3-2,.6-.6,1.2-1,1.9-1.3.7-.3,1.5-.4,2.4-.4s1.7.1,2.4.4c.7.3,1.4.7,1.9,1.3.5.6,1,1.2,1.3,2s.5,1.6.5,2.5-.2,1.8-.5,2.5Z"/>
  <path class="st0" d="M52.4,2.8C28.7,2.8,9.4,22.1,9.4,45.8v8.2s0,0,0,0v23.9c0,22.5,17.4,41.1,39.5,42.9,0,0,0,0,0,0,.3,0,.5,0,.8,0,.1,0,.2,0,.3,0,.2,0,.4,0,.6,0,.2,0,.3,0,.5,0,.2,0,.3,0,.5,0,.2,0,.4,0,.5,0,0,0,.1,0,.2,0,11.5,0,22.2-4.5,30.4-12.5,7.9-7.9,12.3-18.2,12.6-29.3,0,0,0,0,0,0,0-.4,0-.7,0-1.1v-32.1c0-23.7-19.3-43-43-43ZM93.9,77.9c0,.4,0,.7,0,1.1,0,0,0,0,0,0-.6,22.3-18.9,40.4-41.4,40.4s-.4,0-.7,0c-.2,0-.3,0-.5,0-.2,0-.3,0-.5,0-.2,0-.4,0-.6,0-.1,0-.2,0-.3,0-.3,0-.5,0-.8,0,0,0,0,0,0,0-21.3-1.7-38.1-19.8-38.1-41.8v-22.6h82.9v23.1ZM28.8,40.9l-4.4-4.7,3-5.6,6.5,1.9c.8.2,1.6,0,2.1-.6.5-.6.7-1.4.5-2.1l-2.1-6.3,5.8-3,4.3,4.6c.5.6,1.3.8,2.1.6.7-.2,1.3-.8,1.5-1.6l1.4-6.3h2.8s0,0,0,0c.4,0,.8.4.8.8l.2,12.6c-2-.1-4,.1-6,.7-9.2,2.6-14.8,11.6-13.2,20.9,0,.2,0,.4,0,.4h-12.2s0,0,0,0l.2-7.8c1.2-.2,3.8-.8,5.3-1,.8-.1,1.4-.6,1.7-1.4.3-.7,0-1.6-.4-2.1ZM59.4,34.3s0,0,0,0c.4.2.9.4,1.3.7.2,0,.3.2.5.3,1,.6,1.9,1.3,2.8,2.1,0,0,0,0,0,0,.4.4.8.8,1.2,1.2,0,0,0,0,0,0,.8.9,1.5,1.9,2.1,3,0,0,0,0,0,0,.3.6.6,1.1.8,1.7.1.3.2.5.3.8,0,0,0,0,0,0,0,.3.2.6.3.8,0,.3.2.6.2.9,0,.2,0,.3.1.5.1.7.2,1.4.3,2.1,0,0,0,0,0,0,0,1.2,0,2.4-.2,3.6v.5c-.1,0-.1.2-.1.2,0,.1,0,.2,0,.3h-33.2s0-.4-.1-.7c-1.5-8.6,3.7-16.8,12.1-19.2.9-.3,1.8-.4,2.8-.5,0,0,0,0,0,0,1.2-.1,2.3-.1,3.5,0,0,0,0,0,0,0,.6,0,1.1.1,1.7.3,0,0,0,0,0,0,1.2.3,2.4.6,3.5,1.1ZM57,31.8l.7-3.6c.1-.7.6-1.4,1.2-1.8l.5-.4c1-.7,1.8-1.6,2.2-2.7l.9-2.2c.2-.4.4-.7.7-.9,0,0,0,0,.1,0h0c.1-.2.2-.1.3-.1,0,0,.2.1.2.3,0,0,0,.1,0,.2,0,.3,0,.5,0,.8l-.6,2.6c-.2,1-.8,1.9-1.6,2.5l-.5.4c-.8.7-1.4,1.6-1.6,2.7l-.5,2.9c-.7-.3-1.4-.5-2.1-.7ZM62.8,34.4l7.9-9.9c.3-.3.8-.4,1.1-.1.3.3.4.8.2,1.1l-7.5,10.2c-.5-.4-1.1-.9-1.7-1.2h0ZM66.9,38.2l2.8-2.4c.6-.5,1.3-.7,2-.7h.6c1.2.1,2.4-.1,3.4-.7l2.1-1.2c.3-.2.7-.3,1.1-.3,0,0,0,0,.1,0h0c.2,0,.3,0,.3.1,0,0,0,.2,0,.3,0,0,0,0,0,.1-.1.2-.3.4-.5.6l-2.1,1.7c-.8.6-1.8,1-2.8,1h-.7c-1.1,0-2.1.4-2.9,1.2l-2.2,2c-.4-.6-.8-1.3-1.3-1.8ZM73.9,52.7c.7,0,1.3.1,1.9.5h-5.2s0,0,0-.1c0,0,0,0,0,0l3.3-.3ZM70.8,51.5c0,0,0,0,0-.1,0-.3,0-.5,0-.8,0,0,0-.2,0-.3,0-.3,0-.6,0-.8,0,0,0-.1,0-.2l3.7-.3c.7,0,1.5.2,2,.7l.5.4c.9.8,2,1.3,3.2,1.4l2.3.3c.4,0,.8.2,1.1.5,0,0,0,0,.1,0h0s0,0,0,0c.1,0,.2.2.1.3,0,0,0,.2-.2.2,0,0-.1,0-.1,0-.2.1-.5.2-.8.2h-2.7c-1,.2-2-.1-2.9-.7l-.5-.4c-.7-.5-1.6-.8-2.6-.8s-.3,0-.4,0l-2.9.3ZM70.5,45.7c0-.3-.2-.7-.2-1,0,0,0,0,0,0,0-.3-.2-.6-.3-1,0,0,0,0,0,0l12.2-3.2c.4-.1.9.1,1,.6.1.4-.1.9-.5,1l-12.1,3.6ZM93.9,53.2h-8.4c0-.1,0-.2,0-.4.1-.8-.3-1.5-.9-1.9-.5-.4-1.1-.7-1.8-.7l-2.3-.3c-.9-.1-1.7-.5-2.4-1.1l-.5-.4c-.9-.8-2-1.1-3.2-1l-3.7.3c0-.2,0-.3,0-.5l12.3-3.7c1.2-.4,1.9-1.7,1.6-2.9-.4-1.2-1.6-2-2.9-1.7l-12.4,3.2c-.1-.2-.2-.5-.3-.7l2.4-2.3c.5-.5,1.2-.7,1.8-.7h.7c1.4,0,2.7-.5,3.8-1.4l2.1-1.7c.3-.3.6-.6.8-1,.5-.6.5-1.4.2-2-.4-.7-1.1-1.1-1.9-.9-.6,0-1.3.2-1.9.5l-2.1,1.2c-.8.4-1.6.6-2.5.6h-.6c-1.2-.1-2.3.3-3.2,1l-2.8,2.4c-.1-.1-.2-.2-.3-.3l7.6-10.3c.8-1,.5-2.5-.5-3.3-1-.8-2.5-.6-3.3.4l-8,10.1c-.3-.2-.6-.3-.8-.4l.6-3.3c.1-.7.5-1.3,1-1.7l.5-.4c1.1-.9,1.8-2.1,2.1-3.4l.6-2.6c0-.4.1-.9,0-1.3,0-.7-.4-1.4-1.1-1.7-.7-.3-1.5-.2-2.1.4-.5.4-.9.9-1.2,1.5l-.9,2.2c-.3.8-.9,1.5-1.7,2l-.5.4c-1,.6-1.6,1.6-1.9,2.8l-.7,3.6c-.2,0-.3,0-.5,0l-.2-12.8c0-1.3-1.1-2.3-2.4-2.3h0s0,0,0,0h-3.4c-.4,0-.7.3-.8.6l-1.6,6.9c0,.3-.3.4-.4.4,0,0-.3,0-.5-.1l-4.7-5c-.2-.3-.6-.3-.9-.2l-7,3.6c-.3.2-.5.6-.4.9l2.3,6.9c0,.3,0,.5-.1.5,0,0-.3.2-.5.1l-7.1-2.1c-.4-.1-.7,0-.9.4l-3.5,6.6c-.2.3-.1.7.1.9l4.7,5.2c.2.2.1.4.1.5s-.1.3-.4.3c-2,.3-5.9,1.1-6,1.1-.4,0-.6.4-.6.7l-.2,8.4s0,0,0,.1h-9.5v-7.4C11,23,29.6,4.4,52.4,4.4s41.4,18.6,41.4,41.4v7.4Z"/>
  <path class="st0" d="M21.3,77.5c0,17.3,13.9,31.5,31,31.5h.1c8.2,0,15.9-3.2,21.8-8.9.4.2,1.9.7,3.8.7s2.6-.2,4-.9c3.9-1.8,4.8-5.9,4.9-6.1,0-.4-.1-.8-.5-.9,0,0-1.3-.5-3-.6.6-.2,1.1-.5,1.7-.8,3.7-2.3,4.2-6.4,4.2-6.6,0-.4-.2-.7-.6-.8-.2,0-4.3-1.1-7.7,1-1.5.9-2.5,2.2-3.1,3.4,0-1.4-.3-3-1.3-4.5-.1-.2-.3-.4-.4-.6,1.1.3,1.9.3,2,.4,0,0,0,0,0,0,.1,0,.2,0,.3,0,.1,0,.2.2.4.2,0,0,.8.2,1.9.2,1.6,0,3.8-.3,5.9-1.8,3.5-2.5,3.6-6.7,3.7-6.9,0-.4-.3-.7-.6-.8-.2,0-4.1-.7-7.3,1.4,1-1.3,2-3.3,2-5.7,0-3.9-2.5-6.5-3.4-7.3v-3.5c0-.4-.4-.8-.8-.8s-.8.4-.8.8v3.5c-.9.8-3.4,3.6-3.5,7.3,0,1.9.6,3.6,1.4,4.9-2.6-3.1-6.7-3-6.9-3-.4,0-.7.3-.7.6,0,.2-1,4.4,1.4,7.5,0,0,0,0,0,0-.8-.2-1.4-.2-1.5-.2-.4,0-.7.2-.8.5,0,.2-1.1,3.5.2,6.5-.7-.2-1.1-.3-1.2-.3-.4,0-.7.1-.8.5,0,.2-1.8,4.1,0,7.6,1.3,2.6,4.1,3.9,5.5,4.4-5.5,5.1-12.6,7.9-20.1,7.9h-.1c-16,0-29.1-13.2-29.4-29.4,1.5-.5,5.3-1.9,7.9-5.2,1.2.3,2.3.3,3,.3s.5,0,.6,0c.4,0,.8-.4.7-.8,0-.4-.4-.8-.8-.7,0,0-5.3.3-7-2.9-1.6-3.1-1.7-4.3-1.5-4.8,0-.1.2-.3.5-.4,2-.5,4-.3,5.3.5.7.4,1.3,1.2,2,2,.9,1.1,1.8,2.1,2.9,2.4.4.1.9-.1,1-.5.1-.4-.1-.9-.5-1-.3,0-.5-.3-.8-.5.9-.6,2.3-1.4,3.1-1.7,1.1-.4,2.3-.2,3.1.4.3.3.8.2,1.1-.2.3-.3.2-.8-.2-1.1-.7-.5-1.4-.8-2.2-.9.2-.3.5-.5.7-.6.1,0,.2,0,.5,0,.4.1,1.1.3,2-.4.4-.4.9-.4,1.1-.4,0,0,0,.1,0,.2,0,.1.2.5.2.7,0,0,0,0,0,0,0,0,0,0,0,0,0,0-.2,0-.4,0-.4,0-.8.4-.7.8,0,.4.4.8.8.7.8,0,1.3-.3,1.7-.8,0,0,0-.1,0-.2.5-.5,1-1,1.3-1,.3.3.3.4.4.6,0,.1,0,.3.2.5.1.2.2.3.4.4.2.2.5.4.9,1,.3.5.7.9,1.2,1.5.1.1.2.3.4.4,0,.3.2.5.5.6.5.6,1.1,1.3,1.6,2.2,1.5,2.4,1.4,2.6,1.2,3.2,0,.1-.1.3-.2.5-.4.9-1.1,2.5,0,4.6.6,1.1,1.7,2.1,2.5,2.8-.8,0-1.5,0-2.8-.2-2.1-.3-2.4-.2-3.6,1.2l-.2.3c-1.5,1.8-.9,3.8-.9,3.9.1.3.4.5.7.5s.2,0,.2,0c.4-.1.6-.6.5-1,0,0-.4-1.3.6-2.4l.2-.3s0,0,0,0c.2.3.5.7.9,1-.2,0-.3,0-.5,0-.4.2-.6.7-.4,1,.6,1.2,1.5,1.4,1.9,1.4h0c.8,0,1.5-.5,1.8-1,.2-.3.2-.7,0-1.1-.2-.6-.9-1-1.1-1.1-.6-.3-1-.7-1.2-1,.2,0,.4,0,.7,0,1.8.3,2.8.4,4.4,0,0,0,0,.1,0,.2,0,.3,0,.7,0,1.1,0,0,0,0-.1,0-.8.1-1.7.6-1.6,1.5,0,.4.2.7.4.8.2.1.3.1.5.1s.4,0,.5-.1c.1,0,.2,0,.2,0,0,0,0,0,0,0,0,0,0,0,0,0,0,0,0,.2,0,.3,0,.3,0,.7-.2.9-.1.1-.5.2-.9.1-1.2-.1-2.7,0-4,.1-.9,0-1.8.2-2.4.1-.1,0-.3,0-.4,0-1.5,0-2.2-.2-2.5-1.5,0-.4-.5-.7-.9-.6-.4,0-.7.5-.6.9.5,2.6,2.5,2.7,3.9,2.7.1,0,.3,0,.4,0,.1,0,.3,0,.4,0,.6,0,1.4,0,2.2-.1,1,0,2-.2,3-.1-.9,1.5-3,1.5-4.7,1.2-.9-.2-1.5-.1-2.3,0-.7,0-1.6.2-3.2,0-2.6-.2-3.3-1.4-3.4-1.4-.2-.4-.7-.5-1.1-.3-.4.2-.5.7-.3,1.1.1.2,1.1,2,4.6,2.3.5,0,.9,0,1.3,0,0,0,0,0,0,0-.3.3-.5.7-.8,1.1-.4.2-.9.7-1.7,1.4-1.5,1.4-2.4,4.2-2.5,4.4-.1.4,0,.9.5,1,0,0,.2,0,.2,0,.3,0,.6-.2.7-.5.2-.5.6-1.7,1.2-2.6,0,.4-.1.7-.1,1-.1,1.8-1.4,3.4-1.4,3.5-.3.3-.2.8.1,1.1.1.1.3.2.5.2s.5-.1.6-.3c0,0,1.6-2.1,1.7-4.3.1-1.8,1.2-4,2-4.8.5-.6.9-1,1.1-1.2.7,0,1.1-.1,1.8,0,.7.1,1.3.2,1.9.2,2.2,0,3.8-.9,4.6-2.5,0-.1,0-.3,0-.4.5,0,.9-.2,1.2-.5.7-.6.7-1.4.8-1.9,0,0,0-.2,0-.3.1-.9.1-2.8,0-3.9,0-.4-.3-.8-.6-1.3,0-.1-.2-.3-.3-.3-.3-.3-.6-.5-.9-.9-.8-.7-1.7-1.6-2.3-2.5-.8-1.4-.4-2.3,0-3.2,0-.2.2-.4.3-.6.9,0,2.4,0,3.5-.5,1.7-.7,4-5.1,4.3-5.9.3-.8.3-1.5,0-2-.3-.6-1.1-1.1-2.2-1.3-1.9-.4-4.5-.3-6.2,1-.9.6-2.2,1-2.9,1.2-.1-.1-.3-.3-.4-.4-.4-.5-.8-.9-1-1.3-.5-.8-.9-1.1-1.1-1.3,0,0,0,0,0,0,0-.4-.3-.9-.9-1.5-.3-.3-.6-.4-1-.3-.4,0-.9.3-1.3.5,0,0,0-.1,0-.2,0-.4-.4-.8-.9-.9-.8-.3-1.9,0-2.7.7-.2.2-.2.2-.6,0-.4-.1-.9-.3-1.6.1-.9.5-1.7,1.6-2,2.2,0,0-.2,0-.3,0-1.1.3-2.8,1.4-3.7,2,0,0-.1-.2-.2-.2-.7-.8-1.4-1.7-2.3-2.3-1.7-1.1-4.1-1.4-6.6-.7-.9.2-1.4.8-1.6,1.3-.5,1.2,0,3.1,1.6,6.2.8,1.4,2,2.3,3.3,2.8-2.9,3.3-7.2,4.4-7.3,4.4,0,0,0,0,0,0,0,0,0,0,0,0,0,0,0,0,0,0,0,0,0,0,0,0,0,0,0,0,0,0,0,0,0,0,0,0,0,0,0,0,0,0s0,0,0,0c0,0,0,0,0,0,0,0,0,0,0,0,0,0,0,0,0,0,0,0,0,0,0,0,0,0,0,0,0,0,0,0,0,0,0,0s0,0,0,0h0ZM85.2,94.2c-.4,1.1-1.5,3.2-3.8,4.3-2.3,1.1-4.8.7-6,.4.5-1.1,1.7-3.3,3.9-4.3,2.2-1,4.7-.6,5.8-.3ZM81.8,86.4c2.1-1.3,4.6-1.2,5.8-1-.3,1.1-1.1,3.4-3.3,4.7-2.2,1.4-4.7,1.2-5.9,1,.4-1.2,1.3-3.5,3.4-4.7ZM76.6,92.3c0,0,.2,0,.2,0,0,.1.2.2.4.2,0,0,.9.3,2.1.3-.2,0-.4.2-.6.3-1.6.7-2.7,1.9-3.5,3,.1-1.3,0-2.8-.6-4.3,1.1.4,1.9.5,2,.5,0,0,0,0,.1,0ZM78.2,76.5c.7.9,1.3,1.5,1.3,1.5.1.1.3.2.5.2s0,0,0,0c-.4.6-.7,1.1-1,1.7,0-1.1-.4-2.2-1-3.4ZM83,77.5c2-1.4,4.5-1.5,5.7-1.4-.2,1.2-.8,3.4-2.9,4.9-2.1,1.5-4.6,1.6-5.8,1.5.3-1.2,1.1-3.5,3-5ZM80.2,64.5c.9.9,2.7,3,2.6,5.8,0,2.9-1.9,5.1-2.8,6-.9-1-2.6-3.2-2.6-5.9,0-2.7,1.8-5,2.7-5.9ZM71.1,73.8c1.2.1,3.7.6,5.2,2.6,1.5,2,1.4,4.5,1.2,5.7-1.2-.2-3.8-.8-5.3-2.8-1.4-1.9-1.4-4.4-1.2-5.6ZM70.2,81.8c1.2.2,3.6.9,5,3,1.4,2.1,1.1,4.6.8,5.8-1.2-.3-3.7-1.1-5-3.2-1.3-2-1-4.5-.8-5.7ZM68.5,94.3c-1.1-2.1-.5-4.6-.2-5.7,1.1.3,3.5,1.3,4.6,3.6,1.1,2.3.5,4.7.2,5.8-1.2-.4-3.6-1.5-4.6-3.7ZM56.5,65.7c1.1-.8,3.1-1.1,4.9-.7.9.2,1.1.4,1.1.5,0,.2,0,.5,0,.7-.5,1.2-2.5,4.6-3.4,5-.7.3-1.9.4-2.7.4,0-.4-.3-.9-.6-1.5.7,0,1.4-.3,2-1,.1-.1.2-.3.3-.4.7-1,.8-1.2,1.9-1.1.4,0,.8-.3.8-.7,0-.4-.3-.8-.7-.8-1.9-.1-2.5.7-3.2,1.8,0,.1-.2.3-.3.4-.4.6-1.4.3-1.8.2-.4-.5-.7-1-1-1.5.9-.2,2-.6,2.8-1.3Z"/>
  <path class="st0" d="M44.9,69.7c1.2,1.8,1.7,4.1,1.7,4.2,0,.4.4.6.8.6s.1,0,.2,0c.4,0,.7-.5.6-.9,0-.1-.6-2.7-1.9-4.7-1.5-2.3-4.9-2.3-5.1-2.3-.4,0-.8.4-.8.8,0,.4.4.8.8.8s2.7,0,3.7,1.6Z"/>
  <path class="st0" d="M42.1,75.8c.2,0,.4.1.6.1.4,0,.7-.1,1-.3.2.3.4.6.7.8.1,0,.3.1.4.1.3,0,.5-.1.7-.4.2-.4.1-.8-.2-1.1-.3-.2-.6-.9-.8-1.4-.1-.3-.2-.5-.3-.7,0,0,0,0,0-.2-.3-.6-1-2-2.7-2.2-2-.3-3.7,1.4-3.8,1.5-.3.3-.3.8,0,1.1.3.3.8.3,1.1,0,.3-.3,1.4-1.2,2.4-1,.6,0,1,.5,1.2.8,0,0,0,0,0,0-.4-.1-.8.1-1,.5-.2.8-.2,1.9.7,2.3Z"/>
  <path class="st0" d="M34.8,76.3c-.4,0-.8.2-.9.7-.2,1.7-.3,4.3.4,6.8,1.4,5,5.8,7.4,6,7.5.1,0,.2,0,.4,0,.3,0,.5-.1.7-.4.2-.4,0-.9-.3-1.1,0,0-4-2.3-5.3-6.6-.7-2.3-.5-4.6-.3-6.2,0-.4-.2-.8-.7-.9Z"/>
  <path class="st0" d="M48.5,45.2c0,0-1.1-1.4-3.4-1.4s-2.5.5-3.5,1.1c-.4.2-.5.7-.3,1.1.2.4.7.5,1.1.3.7-.4,1.1-.6,1.7-.8-.3.2-.4.6-.4.9,0,.7.5,1.2,1.2,1.2s1.2-.5,1.2-1.2-.2-.7-.5-1c1.1.2,1.5.7,1.6.7.2.2.4.3.6.3s.3,0,.5-.2c.3-.3.4-.7.2-1.1Z"/>
  <path class="st0" d="M62.4,44.8c-1-.6-1.8-1.1-3.5-1.1s-3.4,1.4-3.4,1.4c-.3.3-.2.8.2,1.1.1.1.3.2.5.2.2,0,.5-.1.6-.3,0,0,.5-.6,1.6-.7-.3.2-.5.6-.5,1,0,.7.5,1.2,1.2,1.2s1.2-.5,1.2-1.2-.2-.7-.4-.9c.6.1,1.1.4,1.7.8.4.2.9,0,1.1-.3.2-.4,0-.9-.3-1.1Z"/>
  <path class="st0" d="M53.2,43.9c-.9,1.9-.6,4.2-.2,5.2.6,1.3,1.3,2,1.4,2.1.2.2.4.2.5.2.2,0,.4,0,.6-.2.3-.3.3-.8,0-1.1,0,0-.6-.6-1.1-1.6-.2-.5-.6-2.3.2-3.9.5-1.1,1.5-1.8,2.9-2.2,4.2-1,6.4,2.1,6.5,2.3.2.4.7.4,1.1.2.4-.2.4-.7.2-1.1-.1-.2-2.9-4.2-8.2-2.9-1.9.5-3.3,1.5-4,3Z"/>
  <path class="st0" d="M46.9,40.9c-5.2-1.3-8,2.7-8.2,2.9-.2.4-.2.8.2,1.1.4.2.8.2,1.1-.2,0-.1,2.3-3.3,6.5-2.3,1.4.3,2.4,1.1,2.9,2.2.8,1.6.4,3.4.2,3.9-.5,1-1,1.6-1,1.6-.3.3-.3.8,0,1.1.2.2.4.2.6.2s.4,0,.6-.2c0,0,.8-.8,1.4-2.1.5-1,.8-3.3-.2-5.2-.7-1.5-2.1-2.6-4-3Z"/>
</svg>