<?xml version="1.0" encoding="UTF-8"?>
<svg id="Capa_1" xmlns="http://www.w3.org/2000/svg" version="1.1" viewBox="0 0 141 115.1">
  <!-- Generator: Adobe Illustrator 29.4.0, SVG Export Plug-In . SVG Version: 2.1.0 Build 152)  -->
  <defs>
    <style>
      .st0 {
        fill: none;
      }

      .st1 {
        fill: #f18419;
      }

      .st2 {
        fill: #07638a;
      }

      .st3 {
        fill: #015397;
      }

      .st4 {
        fill: #f9ae20;
      }

      .st5 {
        fill: #7fa12c;
      }

      .st6 {
        fill: #008dc2;
      }

      .st7 {
        fill: #1a6f1c;
      }
    </style>
  </defs>
  <path class="st7" d="M85.6,89.1l9.9,11.4c1,1.1,2.8.3,2.8-1.2l-.2-20-12.5,9.9Z"/>
  <g>
    <path class="st5" d="M105.7,43.4h1.5v-2.6c0-2.9,2.4-5.3,5.3-5.3h4.2c-5.8-10.1-16.4-17.1-28.6-18h-5.5c0-.1-13.6,13.2-13.6,13.2h16.6c8.9.1,16.5,5.3,20.2,12.7Z"/>
    <path class="st5" d="M116,70c-.8.4-1.7.7-2.6.7h-2.4c-2.3,0-4.2-1.4-5-3.4-.6.2-1.2.4-1.9.4h-1.2c-2.8,3.3-6.4,5.9-10.6,7.2-2,6.3-6.5,11.5-12.3,14.5h5.6c13.4,0,25.1-7.4,31.3-18.2-.3-.3-.6-.7-.9-1.1Z"/>
  </g>
  <path class="st3" d="M50,89.3l13.5-14.3h-16c-11.3,0-20.4-9.7-20.4-21.7s5.4-21.7,16.7-21.7h0c-4.3-8.7,3.8-14.3,3.8-14.3-18.7,0-33.9,16.1-33.9,36s15.2,36,33.9,36h2.5Z"/>
  <path class="st0" d="M39,18.4"/>
  <path class="st2" d="M63.5,75l-24,25.5c-1,1.1-2.8.3-2.8-1.2l.2-20,26.6-4.2Z"/>
  <path class="st4" d="M68.8,30.7l13.6-13.4h-13.6c-11.8,0-21.3,9.4-21.3,21s7.1,18.3,16.6,20.4l10.1-11.5c-1.9-.6-5.3-1.2-5.3-1.2h-.1c-3.3,0-6.3-2-7.4-5-1.9-5.4,2.2-10.3,7.4-10.3Z"/>
  <path class="st1" d="M69.1,25.1c-5.9,0-10.6,4.7-10.6,10.5s3.6,9.2,8.3,10.2h0c-2.4-.7-4.5-2.4-5.3-4.8-1.9-5.4,2.2-10.3,7.4-10.3l5.7-5.6h-5.5Z"/>
  <path class="st4" d="M72.8,46.9l-10.1,11.5c1.9.6,5.3,1.2,5.3,1.2h.1c3.3,0,6.3,2,7.4,5,1.8,5-1.7,9.7-6.4,10.3h-5.6c0,.1-13.5,14.4-13.5,14.4h18.1c11.8,0,21.3-10.4,21.3-22s-7.1-18.3-16.6-20.4Z"/>
  <path class="st2" d="M50,89.3l12.7-13.5h-13.1c-12.4,0-22.6-10.1-22.6-22.6s7.5-19.7,17.5-22c1.7-5.9,5.6-10.8,10.6-14h-5.6c-19.9,0-36,16.1-36,36h0c0,19.9,16.1,36,36,36h.4Z"/>
  <path class="st6" d="M49.6,75c-12.4,0-22.5-9.3-22.5-21.7s7.5-19.7,17.5-22c1.7-5.7,5.3-10.5,10.1-13.7h-2.6c-16.3,0-29.5,13.2-29.5,29.5h0c0,16.3,13.2,29.5,29.5,29.5h9.8l1.6-1.7h-13.9Z"/>
  <path class="st1" d="M64.2,58.7h-.1c1.8.5,3.9.9,3.9.9h.1c3.3,0,6.3,2,7.4,5,1.8,5-1.7,9.7-6.4,10.3h-5.6c0,.1-13.5,14.4-13.5,14.4h18.1s0,0,0,0c2.8,0,5.4-1.2,7.4-3.2,8.6-8.8,7.9-17.7,3.3-23.2-5-6-14.7-4.3-14.7-4.3Z"/>
  <g>
    <rect class="st7" x="98.3" y="56.6" width="7.1" height="7.1" rx="1.4" ry="1.4"/>
    <rect class="st7" x="103" y="47.3" width="7.1" height="7.1" rx="1.4" ry="1.4"/>
    <rect class="st7" x="112.7" y="50.9" width="7.1" height="7.1" rx="1.4" ry="1.4"/>
    <rect class="st7" x="109.5" y="61.6" width="5.2" height="5.2" rx="1.4" ry="1.4"/>
    <rect class="st7" x="119.2" y="61.6" width="7.1" height="7.1" rx="1.4" ry="1.4"/>
    <rect class="st7" x="111.2" y="39.4" width="7.1" height="7.1" rx="1.4" ry="1.4"/>
    <rect class="st7" x="122.7" y="40" width="4.7" height="4.7" rx="1.4" ry="1.4"/>
  </g>
  <g>
    <path class="st7" d="M105.7,43.4h1.5v-2.6c0-1.4.6-2.7,1.5-3.7-5.4-6.7-13.5-11.2-22.7-11.9h-11.4c0,0-5.6,5.5-5.6,5.5h16.6c8.9.1,16.5,5.3,20.2,12.7Z"/>
    <path class="st7" d="M110.9,70.7c-2.3,0-4.2-1.4-5-3.4-.6.2-1.2.4-1.9.4h-1.2c-2.8,3.3-6.4,5.9-10.6,7.2-2,6.3-6.5,11.5-12.3,14.5h3.8c12.9,0,24-7.6,29.1-18.6h-2Z"/>
  </g>
</svg>