<?xml version="1.0" encoding="UTF-8"?>
<svg id="Capa_1" xmlns="http://www.w3.org/2000/svg" version="1.1" viewBox="0 0 141 70">
  <!-- Generator: Adobe Illustrator 29.4.0, SVG Export Plug-In . SVG Version: 2.1.0 Build 152)  -->
  <defs>
    <style>
      .st0 {
        fill: #008dc2;
      }

      .st0, .st1, .st2, .st3, .st4 {
        fill-rule: evenodd;
      }

      .st1 {
        fill: #07638a;
      }

      .st5 {
        fill: #5f7e2b;
      }

      .st2 {
        fill: #f9ae20;
      }

      .st3 {
        fill: #f18419;
      }

      .st4 {
        fill: #7fa12c;
      }
    </style>
  </defs>
  <path class="st4" d="M123,23.5c-15.4-12-56.1,32-55.4,33,.2.3,42.3-.9,47.6-1.7,8.1-1.2,10.9-6.3,11.8-9.1,3-9.3,0-19.1-3.9-22.2M92.3,56.4h0"/>
  <path class="st0" d="M63,55.6c-.6-.2-1.3-.4-2.2-.6.9.2,1.6.4,2.2.6-3.4-3.4-24-21.3-35.4-27.8-5.6-3.2-8.9.6-10.9,3.7-1,1.6-1.8,3.6-2.4,5.9-.4,2.3-.7,5-.6,7.6v1.1c.4,4.1,1.8,7.8,4.7,9.8,3.7,2.3,7,2.3,26.3,1.2h0c4.6-.3,10.5-.5,18.2-.7.6,0,.6-.3,0-.8"/>
  <path class="st2" d="M65.3,49.6c6.3-7.5,21.7-22.6,36.3-30-6.7-4.7-14.8-7.5-23.5-7.5-14.4,0-27.1,7.6-34.8,19.2,8.8,6.7,18,14.6,22,18.3"/>
  <path class="st1" d="M63,55.6c-.8-.8-2.7-2.5-5.1-4.7,0,.2,0,.3-.5.3-7.7.2-13.6.4-18.2.7h0c-15.4.9-20.6,1.1-24,0,.8,1.6,1.8,3,3.2,4,3.7,2.3,7,2.3,26.3,1.2h0c4.6-.3,10.5-.5,18.2-.7.6,0-.4-1,0-.8"/>
  <path class="st3" d="M57.8,43c3.1,2.7,5.8,5,7.5,6.6,6.3-7.4,21.6-22.5,36.2-29.9-11.1-4.9-31.5,11.6-43.7,23.4"/>
  <path class="st5" d="M123,23.5c-.7-.5-1.4-.9-2.2-1.3,1.5,4.9,1.8,11.2-.2,17.3-1,3.1-4.2,8.9-13.3,10.3-3.5.5-21.4,1.2-35.7,1.6-2.7,2.9-4.2,4.8-4.1,5,.2.3,42.3-.9,47.6-1.7,8.1-1.2,10.9-6.3,11.8-9.1,3-9.3,0-19.1-3.9-22.2M81.4,51.8h0"/>
</svg>