<?xml version="1.0" encoding="UTF-8"?>
<svg id="Capa_1" xmlns="http://www.w3.org/2000/svg" version="1.1" viewBox="0 0 356.5 83.7">
  <!-- Generator: Adobe Illustrator 29.4.0, SVG Export Plug-In . SVG Version: 2.1.0 Build 152)  -->
  <defs>
    <style>
      .st0 {
        fill: none;
      }

      .st1 {
        fill: #f18419;
      }

      .st2 {
        fill: #07638a;
      }

      .st3 {
        fill: #fff;
      }

      .st4 {
        fill: #015397;
      }

      .st5 {
        fill: #f9ae20;
      }

      .st6 {
        fill: #7fa12c;
      }

      .st7 {
        fill: #008dc2;
      }

      .st8 {
        fill: #1a6f1c;
      }
    </style>
  </defs>
  <g>
    <path class="st8" d="M72,71.8l9.9,11.4c1,1.1,2.8.3,2.8-1.2l-.2-20-12.5,9.9h0Z"/>
    <g>
      <path class="st6" d="M92.1,26.1h1.5v-2.6c0-2.9,2.4-5.3,5.3-5.3h4.2C97.3,8,86.8,1,74.5,0h-5.5C69,0,55.4,13.3,55.4,13.3h16.6c8.9.1,16.5,5.3,20.2,12.7h0Z"/>
      <path class="st6" d="M102.4,52.7c-.8.4-1.7.7-2.6.7h-2.4c-2.3,0-4.2-1.4-5-3.4-.6.2-1.2.4-1.9.4h-1.2c-2.8,3.3-6.4,5.9-10.6,7.2-2,6.3-6.5,11.5-12.3,14.5h5.6c13.4,0,25.1-7.4,31.3-18.2-.3-.3-.6-.7-.9-1.1h0Z"/>
    </g>
    <path class="st4" d="M36.4,72l13.5-14.3h-16c-11.3,0-20.4-9.7-20.4-21.7s5.4-21.7,16.7-21.7h0C25.9,5.6,34,0,34,0,15.2,0,0,16.1,0,36s15.2,36,33.9,36h2.5Z"/>
    <path class="st0" d="M25.4,1.1"/>
    <path class="st2" d="M49.9,57.7l-24,25.5c-1,1.1-2.8.3-2.8-1.2l.2-20,26.6-4.2h0Z"/>
    <path class="st5" d="M55.2,13.4L68.8,0h-13.6C43.4,0,33.9,9.4,33.9,21s7.1,18.3,16.6,20.4l10.1-11.5c-1.9-.6-5.3-1.2-5.3-1.2h0c-3.3,0-6.3-2-7.4-5-1.9-5.4,2.2-10.3,7.4-10.3Z"/>
    <path class="st1" d="M55.5,7.8c-5.9,0-10.6,4.7-10.6,10.5s3.6,9.2,8.3,10.2h0c-2.4-.7-4.5-2.4-5.3-4.8-1.9-5.4,2.2-10.3,7.4-10.3l5.7-5.6s-5.5,0-5.5,0Z"/>
    <path class="st5" d="M59.2,29.6l-10.1,11.5c1.9.6,5.3,1.2,5.3,1.2h0c3.3,0,6.3,2,7.4,5,1.8,5-1.7,9.7-6.4,10.3h-5.6c0,0-13.5,14.4-13.5,14.4h18.1c11.8,0,21.3-10.4,21.3-22s-7.1-18.3-16.6-20.4Z"/>
    <path class="st2" d="M36.4,72l12.7-13.5h-13.1c-12.4,0-22.6-10.1-22.6-22.6s7.5-19.7,17.5-22c1.7-5.9,5.6-10.8,10.6-14h-5.6C16.1,0,0,16.1,0,36h0c0,19.9,16.1,36,36,36h.4Z"/>
    <path class="st7" d="M36,57.7c-12.4,0-22.5-9.3-22.5-21.7s7.5-19.7,17.5-22c1.7-5.7,5.3-10.5,10.1-13.7h-2.6c-16.3,0-29.6,13.3-29.6,29.6h0c0,16.3,13.2,29.5,29.5,29.5h9.8l1.6-1.7h-13.9,0Z"/>
    <path class="st1" d="M50.6,41.4h0c1.8.5,3.9.9,3.9.9h0c3.3,0,6.3,2,7.4,5,1.8,5-1.7,9.7-6.4,10.3h-5.6c0,0-13.5,14.4-13.5,14.4h18.1c2.8,0,5.4-1.2,7.4-3.2,8.6-8.8,7.9-17.7,3.3-23.2-5-6-14.7-4.3-14.7-4.3h0Z"/>
    <g>
      <rect class="st8" x="84.7" y="39.3" width="7.1" height="7.1" rx="1.4" ry="1.4"/>
      <rect class="st8" x="89.4" y="30" width="7.1" height="7.1" rx="1.4" ry="1.4"/>
      <rect class="st8" x="99.1" y="33.6" width="7.1" height="7.1" rx="1.4" ry="1.4"/>
      <rect class="st8" x="95.9" y="44.3" width="5.2" height="5.2" rx="1.4" ry="1.4"/>
      <rect class="st8" x="105.6" y="44.3" width="7.1" height="7.1" rx="1.4" ry="1.4"/>
      <rect class="st8" x="97.6" y="22.1" width="7.1" height="7.1" rx="1.4" ry="1.4"/>
      <rect class="st8" x="109.1" y="22.7" width="4.7" height="4.7" rx="1.4" ry="1.4"/>
    </g>
    <g>
      <path class="st8" d="M92.1,26.1h1.5v-2.6c0-1.4.6-2.7,1.5-3.7-5.4-6.7-13.5-11.2-22.7-11.9h-11.4l-5.6,5.5h16.6c8.9.1,16.5,5.3,20.2,12.7h0Z"/>
      <path class="st8" d="M97.3,53.4c-2.3,0-4.2-1.4-5-3.4-.6.2-1.2.4-1.9.4h-1.2c-2.8,3.3-6.4,5.9-10.6,7.2-2,6.3-6.5,11.5-12.3,14.5h3.8c12.9,0,24-7.6,29.1-18.6h-2,0Z"/>
    </g>
  </g>
  <g>
    <path class="st3" d="M145.6,49.3c-2.8,0-5.4-.3-8-1-2.5-.7-4.6-1.6-6.1-2.6l3.1-7c1.5,1,3.2,1.7,5.2,2.4,2,.6,3.9.9,5.9.9s2.4,0,3.2-.3,1.4-.5,1.7-1c.4-.4.6-.9.6-1.5s-.4-1.3-1.1-1.7c-.7-.4-1.6-.8-2.7-1.1-1.1-.3-2.4-.6-3.7-.9-1.3-.3-2.7-.6-4-1.1-1.4-.4-2.6-1-3.7-1.8-1.1-.7-2-1.7-2.7-2.9-.7-1.2-1-2.7-1-4.4s.5-3.8,1.6-5.4,2.7-2.9,4.9-3.9,4.9-1.5,8.2-1.5,4.4.2,6.5.7,4,1.2,5.6,2.2l-2.9,7c-1.6-.9-3.2-1.5-4.7-2-1.6-.4-3.1-.6-4.5-.6s-2.4.1-3.2.4-1.4.7-1.7,1.1c-.4.4-.5.9-.5,1.4,0,.8.4,1.4,1.1,1.8.7.4,1.6.8,2.7,1.1,1.1.3,2.3.5,3.7.8s2.7.6,4,1.1c1.3.4,2.6,1,3.7,1.7,1.1.7,2,1.7,2.7,2.8.7,1.2,1.1,2.6,1.1,4.4s-.5,3.7-1.6,5.4c-1.1,1.6-2.7,3-4.9,3.9-2.2,1-5,1.5-8.3,1.5h-.2Z"/>
    <path class="st3" d="M172.5,49.1c-2,0-3.8-.4-5.2-1.1s-2.5-1.7-3.3-2.9c-.7-1.2-1.1-2.5-1.1-4s.4-3,1.2-4.2,2.1-2.1,3.8-2.7,3.9-.9,6.5-.9h6.1v4.8h-4.9c-1.5,0-2.5.2-3.1.7-.6.4-.9,1.1-.9,1.9s.3,1.4.9,1.9c.6.5,1.4.7,2.5.7s1.9-.2,2.7-.7,1.4-1.2,1.7-2.3l1.2,3.3c-.5,1.8-1.4,3.1-2.8,4-1.4.9-3.2,1.4-5.5,1.4h.2ZM180.1,48.6v-4.8l-.6-1.2v-8.9c0-1.4-.4-2.5-1.3-3.3-.9-.8-2.3-1.2-4.2-1.2s-2.5.2-3.8.6-2.4.9-3.3,1.6l-3-6.1c1.5-1,3.2-1.7,5.3-2.2s4.1-.8,6.1-.8c4.2,0,7.5,1,9.8,2.9s3.5,5,3.5,9.1v14.4h-8.5Z"/>
    <path class="st3" d="M211.2,22.3c2,0,3.8.4,5.4,1.2,1.6.8,2.9,2.1,3.8,3.8.9,1.7,1.4,3.9,1.4,6.5v14.8h-9.1v-13.3c0-1.8-.4-3.2-1.1-4-.7-.8-1.8-1.3-3-1.3s-1.9.2-2.7.6-1.4,1.1-1.9,2c-.4.9-.7,2.1-.7,3.5v12.5h-9.1v-25.9h8.7v7.4l-1.7-2.2c1-1.8,2.3-3.3,4.1-4.2,1.7-1,3.7-1.5,5.8-1.5h.1Z"/>
    <path class="st3" d="M241.1,49.1c-2.9,0-5.5-.6-7.7-1.7-2.2-1.1-4-2.7-5.3-4.8-1.3-2-1.9-4.3-1.9-6.9s.6-4.9,1.9-6.9,3-3.6,5.3-4.8c2.2-1.2,4.8-1.7,7.7-1.7s5.5.6,7.6,1.9,3.6,3,4.5,5.2l-7,3.6c-.6-1.2-1.4-2.1-2.2-2.7-.9-.6-1.9-.8-2.9-.8s-2,.2-2.8.7-1.5,1.2-2,2.1c-.5.9-.8,2-.8,3.4s.3,2.4.8,3.3c.5.9,1.2,1.6,2,2.1s1.8.7,2.8.7,2-.3,2.9-.8c.9-.6,1.6-1.4,2.2-2.7l7,3.6c-.9,2.2-2.4,4-4.5,5.2-2.1,1.3-4.7,1.9-7.6,1.9h0Z"/>
    <path class="st3" d="M253.1,48.6l14.8-33.4h9.3l14.8,33.4h-9.8l-11.6-28.8h3.7l-11.6,28.8h-9.7.1ZM261.2,42.1l2.4-6.9h16.3l2.4,6.9h-21.2.1Z"/>
    <path class="st3" d="M294.3,57.9V22.7h8.7v13l.4,8.6v13.6h-9.1ZM310.5,49.1c-2.2,0-4.1-.5-5.6-1.5-1.6-1-2.7-2.4-3.6-4.4-.8-2-1.2-4.5-1.2-7.5s.4-5.7,1.1-7.6c.8-2,1.9-3.4,3.5-4.4,1.5-1,3.5-1.5,5.8-1.5s4.5.6,6.4,1.7,3.5,2.7,4.6,4.7,1.7,4.4,1.7,7.1-.6,5.1-1.7,7.1-2.7,3.6-4.6,4.6c-1.9,1.1-4.1,1.6-6.4,1.6h0ZM308.6,41.9c1,0,1.9-.2,2.7-.7.8-.5,1.5-1.2,2-2.1.5-.9.7-2,.7-3.3s-.2-2.5-.7-3.4c-.5-.9-1.1-1.6-2-2.1-.8-.5-1.7-.7-2.7-.7s-1.9.2-2.7.7c-.8.5-1.5,1.2-2,2.1-.5.9-.7,2-.7,3.4s.2,2.4.7,3.3c.5.9,1.1,1.6,2,2.1.8.5,1.7.7,2.7.7Z"/>
    <path class="st3" d="M327.5,57.9V22.7h8.7v13l.4,8.6v13.6h-9.1ZM343.8,49.1c-2.2,0-4.1-.5-5.6-1.5-1.6-1-2.7-2.4-3.6-4.4-.8-2-1.2-4.5-1.2-7.5s.4-5.7,1.1-7.6c.8-2,1.9-3.4,3.5-4.4,1.5-1,3.5-1.5,5.8-1.5s4.5.6,6.4,1.7,3.5,2.7,4.6,4.7,1.7,4.4,1.7,7.1-.6,5.1-1.7,7.1-2.7,3.6-4.6,4.6c-1.9,1.1-4.1,1.6-6.4,1.6h0ZM341.8,41.9c1,0,1.9-.2,2.7-.7.8-.5,1.5-1.2,2-2.1.5-.9.7-2,.7-3.3s-.2-2.5-.7-3.4c-.5-.9-1.1-1.6-2-2.1-.8-.5-1.7-.7-2.7-.7s-1.9.2-2.7.7c-.8.5-1.5,1.2-2,2.1-.5.9-.7,2-.7,3.4s.2,2.4.7,3.3c.5.9,1.1,1.6,2,2.1.8.5,1.7.7,2.7.7Z"/>
  </g>
  <g>
    <path class="st3" d="M136.6,74.3c-.8,0-1.5,0-2.1-.4s-1.2-.6-1.7-1.1-.9-1-1.1-1.6c-.3-.6-.4-1.3-.4-2.1s.1-1.4.4-2.1c.3-.6.6-1.2,1.1-1.6.5-.5,1-.8,1.7-1.1.7-.3,1.4-.4,2.1-.4s1.5,0,2.1.4c.6.2,1.2.6,1.6,1.1l-.7.7c-.4-.4-.9-.7-1.4-.9-.5-.2-1.1-.3-1.7-.3s-1.2,0-1.7.3c-.5.2-1,.5-1.4.9s-.7.8-.9,1.3-.3,1.1-.3,1.7.1,1.2.3,1.7.5,1,.9,1.3c.4.4.9.7,1.4.9.5.2,1.1.3,1.7.3s1.1,0,1.6-.3c.5-.2,1-.5,1.4-.9l.6.8c-.5.4-1,.7-1.7,1-.6.2-1.3.3-2,.3h.2ZM139.3,72.9v-3.7h1v3.9h-1v-.2Z"/>
    <path class="st3" d="M144.4,73.3h6.1v.9h-7.2v-10.1h7v.9h-5.9v8.3h0ZM144.3,68.6h5.4v.9h-5.4v-.9Z"/>
    <path class="st3" d="M155.8,74.3c-.8,0-1.5,0-2.2-.4-.7-.2-1.2-.6-1.6-.9l.4-.8c.4.3.8.6,1.4.9.6.2,1.2.4,1.9.4s1.2,0,1.6-.2c.4-.2.7-.4.9-.6.2-.3.3-.6.3-.9s-.1-.7-.3-1c-.2-.2-.5-.4-.9-.6s-.8-.3-1.2-.4-.9-.2-1.3-.3-.9-.3-1.2-.5-.7-.5-.9-.8-.3-.8-.3-1.3.1-1,.4-1.4c.3-.4.7-.8,1.2-1,.6-.3,1.3-.4,2.1-.4s1.1,0,1.7.2c.6.2,1,.4,1.4.7l-.4.9c-.4-.3-.9-.5-1.4-.6s-1-.2-1.4-.2-1.1,0-1.5.2-.7.4-.9.7c-.2.3-.3.6-.3.9s.1.7.3,1c.2.2.5.4.9.6s.8.3,1.2.4.9.2,1.3.3c.4,0,.8.3,1.2.5s.7.5.9.8.3.8.3,1.3-.1.9-.4,1.4c-.3.4-.7.8-1.2,1s-1.3.4-2.1.4v-.3Z"/>
    <path class="st3" d="M163.7,74.2v-9.2h-3.6v-.9h8.2v.9h-3.6v9.2h-1.1.1Z"/>
    <path class="st3" d="M170.1,74.2v-10.1h1.1v10.1h-1.1Z"/>
    <path class="st3" d="M178.9,74.3c-.8,0-1.5,0-2.1-.4s-1.2-.6-1.7-1.1-.9-1-1.1-1.6c-.3-.6-.4-1.3-.4-2.1s.1-1.4.4-2.1c.3-.6.6-1.2,1.1-1.6.5-.5,1-.8,1.7-1.1.6-.3,1.4-.4,2.1-.4s1.5,0,2.1.4,1.2.6,1.7,1.1.9,1,1.1,1.6c.3.6.4,1.3.4,2.1s-.1,1.4-.4,2.1c-.3.6-.6,1.2-1.1,1.6-.5.5-1,.8-1.7,1.1s-1.4.4-2.1.4ZM178.9,73.4c.6,0,1.2,0,1.7-.3s1-.5,1.3-.9c.4-.4.7-.8.9-1.3s.3-1.1.3-1.7-.1-1.2-.3-1.7-.5-1-.9-1.3c-.4-.4-.8-.7-1.3-.9s-1.1-.3-1.7-.3-1.2,0-1.7.3c-.5.2-1,.5-1.4.9s-.7.8-.9,1.3-.3,1.1-.3,1.7.1,1.2.3,1.7.5,1,.9,1.3c.4.4.8.7,1.4.9.5.2,1.1.3,1.7.3ZM178,63.3l2-1.8h1.4l-2.3,1.8h-1.1Z"/>
    <path class="st3" d="M186.6,74.2v-10.1h.9l7,8.8h-.5v-8.8h1.1v10.1h-.9l-7-8.8h.5v8.8h-1.1Z"/>
    <path class="st3" d="M206.6,74.3c-.8,0-1.5,0-2.1-.4s-1.2-.6-1.7-1.1-.8-1-1.1-1.6-.4-1.3-.4-2.1.1-1.4.4-2.1c.3-.6.6-1.2,1.1-1.6.5-.5,1-.8,1.7-1.1.6-.3,1.4-.4,2.1-.4s1.4,0,2.1.4,1.2.6,1.6,1.1l-.7.7c-.4-.4-.9-.7-1.4-.9-.5-.2-1-.3-1.6-.3s-1.2,0-1.7.3c-.5.2-1,.5-1.4.9s-.7.8-.9,1.3-.3,1.1-.3,1.7.1,1.2.3,1.7.5,1,.9,1.3c.4.4.8.7,1.4.9.5.2,1.1.3,1.7.3s1.1,0,1.6-.3,1-.5,1.4-.9l.7.7c-.4.5-1,.9-1.6,1.1s-1.3.4-2.1.4Z"/>
    <path class="st3" d="M212.6,74.2v-10.1h1.1v10.1h-1.1Z"/>
    <path class="st3" d="M221.1,74.3c-1.3,0-2.3-.4-3.1-1.1-.7-.7-1.1-1.8-1.1-3.3v-5.8h1.1v5.8c0,1.2.3,2.1.8,2.7s1.3.9,2.3.9,1.8-.3,2.3-.9.8-1.5.8-2.7v-5.8h1v5.8c0,1.5-.4,2.6-1.1,3.3-.7.7-1.8,1.1-3,1.1Z"/>
    <path class="st3" d="M228.5,74.2v-10.1h4.1c1.1,0,2,.2,2.8.6s1.5,1,1.9,1.8c.5.8.7,1.6.7,2.6s-.2,1.9-.7,2.6c-.5.8-1.1,1.4-1.9,1.8-.8.4-1.8.6-2.8.6h-4.1ZM229.5,73.3h3c.9,0,1.7-.2,2.3-.5.7-.4,1.2-.8,1.5-1.5s.6-1.3.6-2.2-.2-1.5-.6-2.2-.9-1.1-1.5-1.5c-.7-.4-1.4-.5-2.3-.5h-3v8.3h0Z"/>
    <path class="st3" d="M238.7,74.2l4.6-10.1h1.1l4.6,10.1h-1.1l-4.3-9.5h.4l-4.3,9.5h-1.1.1ZM240.5,71.5l.3-.9h5.9l.3.9h-6.5Z"/>
    <path class="st3" d="M250.7,74.2v-10.1h4.1c1.1,0,2,.2,2.8.6.8.4,1.5,1,1.9,1.8.5.8.7,1.6.7,2.6s-.2,1.9-.7,2.6c-.5.8-1.1,1.4-1.9,1.8s-1.8.6-2.8.6h-4.1ZM251.8,73.3h3c.9,0,1.7-.2,2.3-.5.7-.4,1.2-.8,1.5-1.5s.6-1.3.6-2.2-.2-1.5-.6-2.2-.9-1.1-1.5-1.5c-.7-.4-1.4-.5-2.3-.5h-3v8.3h0Z"/>
    <path class="st3" d="M260.9,74.2l4.6-10.1h1.1l4.6,10.1h-1.1l-4.3-9.5h.4l-4.3,9.5h-1.1,0ZM262.7,71.5l.3-.9h5.9l.3.9h-6.5,0Z"/>
    <path class="st3" d="M272.9,74.2v-10.1h.9l7,8.8h-.5v-8.8h1.1v10.1h-.9l-7-8.8h.5v8.8h-1.1Z"/>
    <path class="st3" d="M283.1,74.2l4.6-10.1h1.1l4.6,10.1h-1.1l-4.3-9.5h.4l-4.3,9.5h-1.1,0ZM284.9,71.5l.3-.9h5.9l.3.9h-6.5,0Z"/>
    <path class="st3" d="M298.9,74.2v-10.1h4.1c1.1,0,2,.2,2.8.6s1.5,1,1.9,1.8c.5.8.7,1.6.7,2.6s-.2,1.9-.7,2.6c-.5.8-1.1,1.4-1.9,1.8s-1.8.6-2.8.6h-4.1ZM299.9,73.3h3c.9,0,1.7-.2,2.3-.5.7-.4,1.2-.8,1.5-1.5s.6-1.3.6-2.2-.2-1.5-.6-2.2-.9-1.1-1.5-1.5c-.7-.4-1.4-.5-2.3-.5h-3v8.3h0Z"/>
    <path class="st3" d="M310.8,74.2v-10.1h1.1v10.1h-1.1Z"/>
    <path class="st3" d="M319.7,74.3c-.8,0-1.5,0-2.1-.4s-1.2-.6-1.7-1.1-.9-1-1.1-1.6c-.3-.6-.4-1.3-.4-2.1s.1-1.4.4-2.1c.3-.6.6-1.2,1.1-1.6.5-.5,1-.8,1.7-1.1.7-.3,1.4-.4,2.1-.4s1.5,0,2.1.4c.6.2,1.2.6,1.6,1.1l-.7.7c-.4-.4-.9-.7-1.4-.9-.5-.2-1.1-.3-1.7-.3s-1.2,0-1.7.3c-.5.2-1,.5-1.4.9s-.7.8-.9,1.3c-.2.5-.3,1.1-.3,1.7s.1,1.2.3,1.7c.2.5.5,1,.9,1.3.4.4.9.7,1.4.9.5.2,1.1.3,1.7.3s1.1,0,1.6-.3c.5-.2,1-.5,1.4-.9l.6.8c-.5.4-1,.7-1.7,1-.6.2-1.3.3-2,.3h.2ZM322.4,72.9v-3.7h1v3.9h-1v-.2Z"/>
    <path class="st3" d="M326.4,74.2v-10.1h1.1v10.1h-1.1Z"/>
    <path class="st3" d="M332.8,74.2v-9.2h-3.6v-.9h8.2v.9h-3.6v9.2h-1.1.1Z"/>
    <path class="st3" d="M337,74.2l4.6-10.1h1.1l4.6,10.1h-1.1l-4.3-9.5h.4l-4.3,9.5h-1.1,0ZM338.8,71.5l.3-.9h5.9l.3.9h-6.5,0Z"/>
    <path class="st3" d="M349,74.2v-10.1h1.1v9.2h5.7v.9h-6.8Z"/>
  </g>
</svg>