<?xml version="1.0" encoding="UTF-8"?>
<svg id="Capa_1" xmlns="http://www.w3.org/2000/svg" version="1.1" viewBox="0 0 271.5 199.5">
  <!-- Generator: Adobe Illustrator 29.4.0, SVG Export Plug-In . SVG Version: 2.1.0 Build 152)  -->
  <defs>
    <style>
      .st0 {
        fill: #008dc2;
      }

      .st0, .st1, .st2, .st3, .st4 {
        fill-rule: evenodd;
      }

      .st1 {
        fill: #07638a;
      }

      .st5 {
        fill: #5f7e2b;
      }

      .st2 {
        fill: #f9ae20;
      }

      .st3 {
        fill: #f18419;
      }

      .st4 {
        fill: #7fa12c;
      }
    </style>
  </defs>
  <g>
    <path d="M86.9,176.7c-3.2,0-6.2-.5-8.9-1.5-2.7-1-5.1-2.5-7.1-4.4s-3.6-4.1-4.7-6.7c-1.1-2.6-1.7-5.4-1.7-8.5s.6-5.9,1.7-8.5,2.7-4.8,4.7-6.7,4.4-3.3,7.1-4.4c2.7-1,5.7-1.5,8.9-1.5s7.1.6,10.1,1.9c3,1.3,5.4,3.2,7.4,5.7l-7.3,6.6c-1.3-1.5-2.8-2.7-4.4-3.5s-3.3-1.2-5.2-1.2-3.2.3-4.6.8-2.6,1.3-3.6,2.3-1.8,2.3-2.3,3.7c-.6,1.4-.8,3-.8,4.8s.3,3.3.8,4.8c.6,1.4,1.3,2.7,2.3,3.7s2.2,1.8,3.6,2.3,2.9.8,4.6.8,3.6-.4,5.2-1.2,3-2,4.4-3.6l7.3,6.6c-2,2.5-4.4,4.4-7.4,5.7s-6.3,2-10.1,2h0Z"/>
    <path d="M129,176.7c-3.2,0-6.2-.5-9-1.6-2.8-1-5.2-2.5-7.2-4.4s-3.6-4.2-4.7-6.7c-1.1-2.6-1.7-5.4-1.7-8.4s.6-5.8,1.7-8.4c1.1-2.6,2.7-4.8,4.7-6.7s4.4-3.4,7.1-4.4c2.7-1,5.7-1.6,9-1.6s6.2.5,9,1.6c2.7,1,5.1,2.5,7.1,4.4s3.6,4.1,4.7,6.7c1.1,2.6,1.7,5.4,1.7,8.4s-.6,5.9-1.7,8.5c-1.1,2.6-2.7,4.8-4.7,6.7s-4.4,3.4-7.2,4.4c-2.7,1-5.7,1.6-9,1.6h.2ZM129,167.2c1.5,0,3-.3,4.3-.8s2.5-1.3,3.5-2.3,1.8-2.2,2.3-3.7c.6-1.4.8-3,.8-4.8s-.3-3.4-.8-4.8c-.6-1.4-1.3-2.6-2.3-3.7-1-1-2.1-1.8-3.5-2.3-1.3-.5-2.8-.8-4.3-.8s-3,.3-4.3.8-2.5,1.3-3.5,2.3-1.8,2.2-2.3,3.7c-.5,1.4-.8,3-.8,4.8s.3,3.4.8,4.8c.5,1.4,1.3,2.6,2.3,3.7,1,1,2.2,1.8,3.5,2.3s2.8.8,4.3.8Z"/>
    <path d="M157.7,175.9v-40.6h9.5l16.8,27.6h-5l16.4-27.6h9.5v40.6h-10.5v-24.5c-.1,0,1.7,0,1.7,0l-12.2,20.5h-5.1l-12.6-20.5h2.2v24.5h-10.7Z"/>
  </g>
  <g>
    <path class="st4" d="M259.1,27C222.6-1.4,126.2,102.8,127.8,105.2c.5.7,100.2-2.1,112.8-4,19.2-2.8,25.8-14.9,28-21.6,7.1-22,0-45.3-9.2-52.6M186.3,105c.2,0,0,0,0,0"/>
    <path class="st0" d="M116.9,103.1c-1.4-.5-3.1-.9-5.2-1.4,2.1.5,3.8.9,5.2,1.4-8.1-8.1-56.9-50.5-83.9-65.9-13.3-7.6-21.1,1.4-25.8,8.8-2.4,3.8-4.3,8.5-5.7,14-.9,5.4-1.7,11.8-1.4,18v2.6c.9,9.7,4.3,18.5,11.1,23.2,8.8,5.4,16.6,5.4,62.3,2.8h0c10.9-.7,24.9-1.2,43.1-1.7,1.4,0,1.4-.7.2-1.9"/>
    <path class="st2" d="M122.4,88.9c14.9-17.8,51.4-53.6,86-71.1C192.5,6.7,173.3,0,152.7,0c-34.1,0-64.2,18-82.5,45.5,20.9,15.9,42.7,34.6,52.1,43.4"/>
    <path class="st1" d="M116.9,103.1c-1.9-1.9-6.4-5.9-12.1-11.1,0,.5,0,.7-1.2.7-18.2.5-32.2.9-43.1,1.7h0c-36.5,2.1-48.8,2.6-56.9-.2,1.9,3.8,4.3,7.1,7.6,9.5,8.8,5.4,16.6,5.4,62.3,2.8h0c10.9-.7,24.9-1.2,43.1-1.7,1.4,0-.9-2.4.2-1.9"/>
    <path class="st3" d="M104.6,73.2c7.3,6.4,13.7,11.8,17.8,15.6,14.9-17.5,51.2-53.3,85.8-70.8-26.3-11.6-74.6,27.5-103.5,55.4"/>
    <path class="st5" d="M259.1,27c-1.7-1.2-3.3-2.1-5.2-3.1,3.6,11.6,4.3,26.5-.5,41-2.4,7.3-10,21.1-31.5,24.4-8.3,1.2-50.7,2.8-84.6,3.8-6.4,6.9-10,11.4-9.7,11.8.5.7,100.2-2.1,112.8-4,19.2-2.8,25.8-14.9,28-21.6,7.1-22,0-45.3-9.2-52.6M160.5,94.1q.1,0,0,0"/>
  </g>
  <g>
    <path d="M19.6,199.4c-.6,0-1.2-.1-1.7-.3-.5-.2-1-.5-1.3-.9-.4-.4-.7-.8-.9-1.3s-.3-1-.3-1.6,0-1.1.3-1.6.5-.9.9-1.3.8-.7,1.3-.9,1.1-.3,1.7-.3,1.2.1,1.7.3c.5.2,1,.5,1.3.9l-.7.7c-.3-.3-.6-.6-1-.7-.4-.2-.8-.2-1.2-.2s-.9,0-1.2.2c-.4.2-.7.4-1,.6-.3.3-.5.6-.7,1s-.2.8-.2,1.2,0,.8.2,1.2c.2.4.4.7.7,1s.6.5,1,.6c.4.2.8.2,1.2.2s.8,0,1.2-.2.7-.4,1-.7l.7.7c-.4.4-.8.7-1.3.9-.5.2-1.1.3-1.7.3v.2Z"/>
    <path d="M25.4,198.3h4.6v1h-5.8v-8h5.6v1h-4.5v6h.1ZM25.3,194.8h4.1v1h-4.1v-1Z"/>
    <path d="M31.8,199.3v-8h.9l5.3,6.5h-.5v-6.5h1.1v8h-.9l-5.3-6.5h.5v6.5h-1.1Z"/>
    <path d="M42.7,199.3v-7h-2.7v-1h6.6v1h-2.7v7h-1.2Z"/>
    <path d="M47.8,199.3v-8h3.1c.7,0,1.3.1,1.8.3s.9.5,1.1,1,.4.9.4,1.5,0,1.1-.4,1.5-.6.7-1.1,1c-.5.2-1.1.3-1.8.3h-2.5l.5-.5v2.9h-1.1ZM48.9,196.5l-.5-.6h2.4c.7,0,1.3-.2,1.7-.5.4-.3.6-.8.6-1.3s-.2-1-.6-1.3-.9-.5-1.7-.5h-2.4l.5-.6v4.7h0ZM53.1,199.3l-2-2.9h1.2l2,2.9h-1.2Z"/>
    <path d="M59.6,199.4c-.6,0-1.2-.1-1.7-.3-.5-.2-1-.5-1.3-.9-.4-.4-.7-.8-.9-1.3-.2-.5-.3-1-.3-1.6s0-1.1.3-1.6c.2-.5.5-.9.9-1.3s.8-.7,1.3-.9c.5-.2,1.1-.3,1.7-.3s1.2.1,1.7.3,1,.5,1.3.9c.4.4.7.8.9,1.3s.3,1,.3,1.6,0,1.1-.3,1.6-.5.9-.9,1.3-.8.7-1.3.9-1.1.3-1.7.3ZM59.6,198.4c.4,0,.9,0,1.2-.2.4-.2.7-.4,1-.6s.5-.6.6-1c.2-.4.2-.8.2-1.2s0-.8-.2-1.2c-.2-.4-.4-.7-.6-1-.3-.3-.6-.5-1-.6-.4-.2-.8-.2-1.2-.2s-.8,0-1.2.2c-.4.2-.7.4-1,.6s-.5.6-.7,1-.2.8-.2,1.2,0,.8.2,1.2c.2.4.4.7.7,1,.3.3.6.5,1,.6.4.2.8.2,1.2.2Z"/>
    <path d="M68.6,199.3v-8h3.4c.8,0,1.6.2,2.2.5s1.2.8,1.5,1.4.5,1.3.5,2.1-.2,1.5-.5,2.1c-.4.6-.9,1.1-1.5,1.4s-1.4.5-2.2.5h-3.4ZM69.8,198.3h2.2c.7,0,1.2-.1,1.7-.4s.9-.6,1.1-1.1c.3-.5.4-1,.4-1.6s0-1.1-.4-1.6c-.3-.4-.6-.8-1.1-1s-1.1-.4-1.7-.4h-2.2v6h0Z"/>
    <path d="M79.2,198.3h4.6v1h-5.8v-8h5.6v1h-4.5v6h.1ZM79.1,194.8h4.1v1h-4.1v-1Z"/>
    <path d="M92.3,199.4c-.6,0-1.2-.1-1.7-.3-.5-.2-1-.5-1.3-.9-.4-.4-.7-.8-.9-1.3-.2-.5-.3-1-.3-1.6s0-1.1.3-1.6c.2-.5.5-.9.9-1.3s.8-.7,1.3-.9c.5-.2,1.1-.3,1.7-.3s1.2.1,1.7.3,1,.5,1.3.9c.4.4.7.8.9,1.3s.3,1,.3,1.6,0,1.1-.3,1.6-.5.9-.9,1.3-.8.7-1.3.9-1.1.3-1.7.3ZM92.3,198.4c.4,0,.9,0,1.2-.2.4-.2.7-.4,1-.6s.5-.6.6-1c.2-.4.2-.8.2-1.2s0-.8-.2-1.2c-.2-.4-.4-.7-.6-1-.3-.3-.6-.5-1-.6-.4-.2-.8-.2-1.2-.2s-.8,0-1.2.2c-.4.2-.7.4-1,.6s-.5.6-.7,1-.2.8-.2,1.2,0,.8.2,1.2c.2.4.4.7.7,1,.3.3.6.5,1,.6.4.2.8.2,1.2.2Z"/>
    <path d="M98.3,199.3v-8h3.1c.7,0,1.3.1,1.8.3s.9.5,1.1,1,.4.9.4,1.5,0,1.1-.4,1.5-.6.7-1.1,1-1.1.3-1.8.3h-2.5l.5-.5v2.9h-1.1ZM99.4,196.5l-.5-.6h2.4c.7,0,1.3-.2,1.7-.5.4-.3.6-.8.6-1.3s-.2-1-.6-1.3-.9-.5-1.7-.5h-2.4l.5-.6v4.7h0Z"/>
    <path d="M107.5,198.3h4.6v1h-5.8v-8h5.6v1h-4.5v6h0ZM107.4,194.8h4.1v1h-4.1v-1Z"/>
    <path d="M114,199.3v-8h3.1c.7,0,1.3.1,1.8.3s.9.5,1.1,1,.4.9.4,1.5-.1,1.1-.4,1.5c-.3.4-.6.7-1.1,1-.5.2-1.1.3-1.8.3h-2.5l.5-.5v2.9h-1.1ZM115.1,196.5l-.5-.6h2.4c.7,0,1.3-.2,1.7-.5s.6-.8.6-1.3-.2-1-.6-1.3c-.4-.3-.9-.5-1.7-.5h-2.4l.5-.6v4.7h0ZM119.3,199.3l-2-2.9h1.2l2,2.9h-1.2Z"/>
    <path d="M121.1,199.3l3.6-8h1.1l3.6,8h-1.2l-3.2-7.3h.5l-3.2,7.3h-1.2ZM122.6,197.3l.3-.9h4.5l.3.9h-5.1Z"/>
    <path d="M134.1,199.4c-.6,0-1.2-.1-1.7-.3-.5-.2-1-.5-1.3-.9-.4-.4-.7-.8-.9-1.3s-.3-1-.3-1.6.1-1.1.3-1.6.5-.9.9-1.3.8-.7,1.3-.9,1.1-.3,1.7-.3,1.2.1,1.7.3c.5.2,1,.5,1.3.9l-.7.7c-.3-.3-.6-.6-1-.7-.4-.2-.8-.2-1.2-.2s-.9,0-1.2.2c-.4.2-.7.4-1,.6-.3.3-.5.6-.7,1s-.2.8-.2,1.2,0,.8.2,1.2c.2.4.4.7.7,1s.6.5,1,.6c.4.2.8.2,1.2.2s.8,0,1.2-.2.7-.4,1-.7l.7.7c-.4.4-.8.7-1.3.9-.5.2-1.1.3-1.7.3v.2Z"/>
    <path d="M138.7,199.3v-8h1.1v8h-1.1Z"/>
    <path d="M145.8,199.4c-.6,0-1.2-.1-1.7-.3-.5-.2-1-.5-1.3-.9-.4-.4-.7-.8-.9-1.3s-.3-1-.3-1.6.1-1.1.3-1.6.5-.9.9-1.3.8-.7,1.3-.9c.5-.2,1.1-.3,1.7-.3s1.2.1,1.7.3,1,.5,1.3.9c.4.4.7.8.9,1.3s.3,1,.3,1.6-.1,1.1-.3,1.6-.5.9-.9,1.3-.8.7-1.3.9-1.1.3-1.7.3ZM145.8,198.4c.4,0,.9,0,1.2-.2.4-.2.7-.4,1-.6s.5-.6.6-1c.2-.4.2-.8.2-1.2s0-.8-.2-1.2c-.2-.4-.4-.7-.6-1-.3-.3-.6-.5-1-.6-.4-.2-.8-.2-1.2-.2s-.8,0-1.2.2-.7.4-1,.6-.5.6-.7,1-.2.8-.2,1.2,0,.8.2,1.2c.2.4.4.7.7,1s.6.5,1,.6c.4.2.8.2,1.2.2Z"/>
    <path d="M151.8,199.3v-8h.9l5.3,6.5h-.5v-6.5h1.1v8h-.9l-5.3-6.5h.5v6.5h-1.1Z"/>
    <path d="M162.2,198.3h4.6v1h-5.8v-8h5.6v1h-4.5v6h0ZM162.1,194.8h4.1v1h-4.1v-1Z"/>
    <path d="M171,199.4c-.6,0-1.2,0-1.7-.3-.6-.2-1-.4-1.3-.7l.4-.9c.3.3.7.5,1.2.7s1,.3,1.5.3.8,0,1.1-.2c.3-.1.5-.3.6-.4s.2-.4.2-.6,0-.5-.3-.7c-.2-.2-.4-.3-.7-.4s-.6-.2-.9-.3c-.3,0-.7-.2-1-.3-.3-.1-.7-.2-.9-.4-.3-.2-.5-.4-.7-.6-.2-.3-.3-.6-.3-1s.1-.8.3-1.1c.2-.3.5-.6,1-.8.5-.2,1-.3,1.7-.3s.9,0,1.4.2c.5.1.8.3,1.2.5l-.4.9c-.3-.2-.7-.4-1.1-.5-.4-.1-.7-.2-1.1-.2s-.8,0-1.1.2c-.3.1-.5.3-.6.5s-.2.4-.2.6,0,.5.3.7c.2.2.4.3.7.4s.6.2.9.3c.3,0,.7.2,1,.3.3,0,.7.2.9.4.3.2.5.4.7.6.2.3.3.6.3,1s-.1.8-.3,1.1c-.2.3-.6.6-1,.8-.5.2-1,.3-1.7.3h0Z"/>
    <path d="M178.8,199.3v-8h.9l3.6,6h-.5l3.5-6h.9v8h-1.1v-6.2h.2l-3.1,5.3h-.5l-3.2-5.3h.3v6.2h-1.1.1Z"/>
    <path d="M193,199.4c-1,0-1.9-.3-2.5-.9s-.9-1.5-.9-2.6v-4.5h1.1v4.5c0,.9.2,1.5.6,1.9.4.4.9.6,1.7.6s1.3-.2,1.7-.6.6-1.1.6-1.9v-4.5h1.1v4.5c0,1.2-.3,2-.9,2.6-.6.6-1.4.9-2.5.9h0Z"/>
    <path d="M198.7,199.3v-8h.9l5.3,6.5h-.5v-6.5h1.1v8h-.9l-5.3-6.5h.5v6.5h-1.1Z"/>
    <path d="M207.9,199.3v-8h1.1v8h-1.1Z"/>
    <path d="M215,199.4c-.6,0-1.2-.1-1.7-.3-.5-.2-1-.5-1.3-.9-.4-.4-.7-.8-.9-1.3s-.3-1-.3-1.6.1-1.1.3-1.6.5-.9.9-1.3.8-.7,1.3-.9,1.1-.3,1.7-.3,1.2.1,1.7.3c.5.2,1,.5,1.3.9l-.7.7c-.3-.3-.6-.6-1-.7-.4-.2-.8-.2-1.2-.2s-.9,0-1.2.2c-.4.2-.7.4-1,.6-.3.3-.5.6-.7,1s-.2.8-.2,1.2,0,.8.2,1.2c.2.4.4.7.7,1s.6.5,1,.6c.4.2.8.2,1.2.2s.8,0,1.2-.2.7-.4,1-.7l.7.7c-.4.4-.8.7-1.3.9-.5.2-1.1.3-1.7.3v.2Z"/>
    <path d="M219.7,199.3v-8h1.1v8h-1.1Z"/>
    <path d="M223.2,199.3v-8h3.1c.7,0,1.3.1,1.8.3s.9.5,1.1,1,.4.9.4,1.5-.1,1.1-.4,1.5c-.3.4-.6.7-1.1,1s-1.1.3-1.8.3h-2.5l.5-.5v2.9h-1.1ZM224.3,196.5l-.5-.6h2.4c.7,0,1.3-.2,1.7-.5s.6-.8.6-1.3-.2-1-.6-1.3c-.4-.3-.9-.5-1.7-.5h-2.4l.5-.6v4.7h0Z"/>
    <path d="M229.7,199.3l3.6-8h1.1l3.6,8h-1.2l-3.2-7.3h.5l-3.2,7.3h-1.2,0ZM231.2,197.3l.3-.9h4.5l.3.9h-5.1,0Z"/>
    <path d="M239.2,199.3v-8h1.1v7h4.3v1h-5.5.1Z"/>
    <path d="M247.1,198.3h4.6v1h-5.8v-8h5.6v1h-4.5v6h0ZM247,194.8h4.1v1h-4.1v-1Z"/>
    <path d="M255.9,199.4c-.6,0-1.2,0-1.7-.3-.6-.2-1-.4-1.3-.7l.4-.9c.3.3.7.5,1.2.7s1,.3,1.5.3.8,0,1.1-.2c.3-.1.5-.3.6-.4s.2-.4.2-.6,0-.5-.3-.7c-.2-.2-.4-.3-.7-.4s-.6-.2-.9-.3c-.3,0-.7-.2-1-.3-.3-.1-.7-.2-.9-.4-.3-.2-.5-.4-.7-.6-.2-.3-.3-.6-.3-1s.1-.8.3-1.1c.2-.3.5-.6,1-.8.5-.2,1-.3,1.7-.3s.9,0,1.4.2c.5.1.8.3,1.2.5l-.4.9c-.3-.2-.7-.4-1.1-.5s-.7-.2-1.1-.2-.8,0-1.1.2c-.3.1-.5.3-.6.5s-.2.4-.2.6,0,.5.3.7c.2.2.4.3.7.4s.6.2.9.3c.3,0,.7.2,1,.3.3,0,.7.2.9.4.3.2.5.4.7.6.2.3.3.6.3,1s-.1.8-.3,1.1c-.2.3-.6.6-1,.8-.5.2-1,.3-1.7.3h-.1Z"/>
  </g>
</svg>