<?xml version="1.0" encoding="UTF-8"?>
<svg id="Capa_1" xmlns="http://www.w3.org/2000/svg" version="1.1" viewBox="0 0 370 70">
  <!-- Generator: Adobe Illustrator 29.4.0, SVG Export Plug-In . SVG Version: 2.1.0 Build 152)  -->
  <defs>
    <style>
      .st0 {
        fill: #5f7e2b;
      }

      .st1 {
        fill: #008dc2;
      }

      .st1, .st2, .st3, .st4, .st5 {
        fill-rule: evenodd;
      }

      .st2 {
        fill: #7fa12c;
      }

      .st6 {
        fill: #fff;
      }

      .st3 {
        fill: #f9ae20;
      }

      .st4 {
        fill: #f18419;
      }

      .st5 {
        fill: #07638a;
      }
    </style>
  </defs>
  <g>
    <path class="st2" d="M123,23.5c-15.4-12-56.1,32-55.4,33,.2.3,42.3-.9,47.6-1.7,8.1-1.2,10.9-6.3,11.8-9.1,3-9.3,0-19.1-3.9-22.2M92.3,56.4c.1,0,0,0,0,0"/>
    <path class="st1" d="M63,55.6c-.6-.2-1.3-.4-2.2-.6.9.2,1.6.4,2.2.6-3.4-3.4-24-21.3-35.4-27.8-5.6-3.2-8.9.6-10.9,3.7-1,1.6-1.8,3.6-2.4,5.9-.4,2.3-.7,5-.6,7.6,0,.4,0,.7,0,1.1.4,4.1,1.8,7.8,4.7,9.8,3.7,2.3,7,2.3,26.3,1.2h0c4.6-.3,10.5-.5,18.2-.7.6,0,.6-.3.1-.8"/>
    <path class="st3" d="M65.3,49.6c6.3-7.5,21.7-22.6,36.3-30-6.7-4.7-14.8-7.5-23.5-7.5-14.4,0-27.1,7.6-34.8,19.2,8.8,6.7,18,14.6,22,18.3"/>
    <path class="st5" d="M63,55.6c-.8-.8-2.7-2.5-5.1-4.7,0,.2,0,.3-.5.3-7.7.2-13.6.4-18.2.7h0c-15.4.9-20.6,1.1-24-.1.8,1.6,1.8,3,3.2,4,3.7,2.3,7,2.3,26.3,1.2h0c4.6-.3,10.5-.5,18.2-.7.6,0-.4-1,.1-.8"/>
    <path class="st4" d="M57.8,43c3.1,2.7,5.8,5,7.5,6.6,6.3-7.4,21.6-22.5,36.2-29.9-11.1-4.9-31.5,11.6-43.7,23.4"/>
    <path class="st0" d="M123,23.5c-.7-.5-1.4-.9-2.2-1.3,1.5,4.9,1.8,11.2-.2,17.3-1,3.1-4.2,8.9-13.3,10.3-3.5.5-21.4,1.2-35.7,1.6-2.7,2.9-4.2,4.8-4.1,5,.2.3,42.3-.9,47.6-1.7,8.1-1.2,10.9-6.3,11.8-9.1,3-9.3,0-19.1-3.9-22.2M81.4,51.8c.1,0,.1,0,0,0"/>
  </g>
  <g>
    <g>
      <path class="st6" d="M165.5,23.4c-.7-.5-1.5-.8-2.4-1.1-.9-.3-1.7-.5-2.6-.7-.9-.2-1.7-.4-2.4-.6-.7-.2-1.3-.5-1.7-.8-.4-.4-.7-.8-.7-1.4s.1-.9.4-1.3.7-.7,1.3-.9c.6-.2,1.3-.3,2.3-.3s1.9.1,2.9.4c1,.3,2,.7,2.9,1.3l1.5-3.9c-1-.6-2.1-1.1-3.4-1.5-1.3-.3-2.6-.5-3.9-.5-2,0-3.6.3-4.9.9-1.3.6-2.3,1.5-2.9,2.5-.6,1-1,2.2-1,3.5s.2,2.1.6,2.9c.4.8,1,1.4,1.7,1.9.7.5,1.5.9,2.4,1.1s1.7.5,2.6.7c.9.2,1.7.4,2.4.6.7.2,1.3.5,1.8.9.4.3.7.8.7,1.4s-.1.9-.4,1.2c-.3.3-.7.6-1.3.8-.6.2-1.4.3-2.3.3s-2.5-.2-3.7-.6c-1.2-.4-2.3-1-3.2-1.7l-1.6,3.9c.9.8,2.2,1.4,3.7,1.8,1.5.5,3.2.7,4.8.7s3.6-.3,4.9-.9,2.3-1.5,2.9-2.5c.6-1,1-2.2,1-3.4s-.2-2.1-.7-2.9c-.4-.8-1-1.4-1.8-1.8Z"/>
      <path class="st6" d="M182.4,19.2c-1.4-1.2-3.3-1.8-5.7-1.8s-2.5.2-3.8.5c-1.2.3-2.3.9-3.2,1.5l1.6,3.4c.6-.5,1.3-.9,2.1-1.2.8-.3,1.7-.4,2.5-.4,1.3,0,2.2.3,2.8.9.6.6.9,1.4.9,2.5h0s-3.7,0-3.7,0c-1.7,0-3,.2-4,.6-1,.4-1.8,1-2.2,1.8-.5.8-.7,1.6-.7,2.6s.2,1.8.7,2.6c.5.8,1.2,1.4,2.1,1.9.9.5,2,.7,3.2.7s2.6-.3,3.5-.9c.6-.4,1.1-.9,1.4-1.5v2.1h4.4v-9.7c0-2.6-.7-4.5-2-5.7ZM178.4,30.9c-.6.4-1.3.6-2.1.6s-1.4-.2-1.9-.6c-.5-.4-.7-.9-.7-1.5s.2-1,.6-1.4c.4-.4,1.2-.6,2.3-.6h3.2v1.7c-.3.8-.7,1.4-1.3,1.7Z"/>
      <path class="st6" d="M201.1,18.1c-1-.5-2.2-.8-3.4-.8s-2.6.3-3.7.9c-.6.4-1.2.8-1.6,1.4v-2h-4.5v17h4.7v-8.4c0-1.1.2-1.9.5-2.6.3-.7.8-1.1,1.4-1.5.6-.3,1.3-.5,2-.5s1.8.3,2.4,1c.6.7.9,1.7.9,3v9h4.7v-9.7c0-1.7-.3-3.1-.9-4.3-.6-1.1-1.4-1.9-2.4-2.5Z"/>
      <path class="st6" d="M221.4,18.4c.6-.6,1.3-1.1,2.1-1.5.8-.3,1.7-.5,2.7-.5s2,.2,2.9.7c.9.4,1.7,1.1,2.4,2l3.1-3c-1-1.3-2.2-2.3-3.7-2.9-1.5-.7-3.1-1-4.9-1s-3.1.3-4.5.8c-1.4.6-2.6,1.4-3.6,2.4-1,1-1.8,2.2-2.4,3.6s-.9,2.9-.9,4.6.3,3.2.9,4.6c.6,1.4,1.4,2.6,2.4,3.6,1,1,2.2,1.8,3.6,2.4,1.4.6,2.9.8,4.5.8s3.5-.3,5-1c1.5-.7,2.7-1.7,3.7-2.9l-3.1-3c-.7.9-1.5,1.5-2.4,2-.9.5-1.9.7-2.9.7s-1.9-.2-2.7-.5c-.8-.3-1.5-.8-2.1-1.5-.6-.6-1.1-1.4-1.4-2.2-.3-.9-.5-1.8-.5-2.9s.2-2,.5-2.9c.3-.9.8-1.6,1.4-2.2Z"/>
      <path class="st6" d="M249,19.2c-1.4-1.2-3.3-1.8-5.7-1.8s-2.5.2-3.8.5c-1.2.3-2.3.9-3.2,1.5l1.6,3.4c.6-.5,1.3-.9,2.1-1.2.8-.3,1.7-.4,2.5-.4,1.3,0,2.2.3,2.8.9.6.6.9,1.4.9,2.5h0s-3.7,0-3.7,0c-1.7,0-3,.2-4,.6-1,.4-1.8,1-2.2,1.8-.5.8-.7,1.6-.7,2.6s.2,1.8.7,2.6c.5.8,1.2,1.4,2.1,1.9.9.5,2,.7,3.2.7s2.6-.3,3.5-.9c.6-.4,1.1-.9,1.4-1.5v2.1h4.4v-9.7c0-2.6-.7-4.5-2-5.7ZM245.1,30.9c-.6.4-1.3.6-2.1.6s-1.4-.2-1.9-.6c-.5-.4-.7-.9-.7-1.5s.2-1,.6-1.4c.4-.4,1.2-.6,2.3-.6h3.2v1.7c-.3.8-.7,1.4-1.3,1.7Z"/>
      <path class="st6" d="M266.1,17.6l-4.6,11.5-4.5-11.5h-4.8l6.9,17.2h0c-.3.9-.7,1.4-1.1,1.8-.4.3-.9.5-1.5.5s-1,0-1.4-.3c-.5-.2-.9-.5-1.2-.8l-1.7,3.5c.5.5,1.2.9,2,1.1.8.3,1.6.4,2.5.4s1.9-.2,2.7-.5,1.5-.9,2.2-1.6c.7-.8,1.3-1.9,1.8-3.2l7.3-18.1h-4.5Z"/>
      <path class="st6" d="M283.4,18.4c-1.3-.7-2.7-1.1-4.3-1.1s-3.1.4-4.4,1.1c-1.3.7-2.3,1.8-3.1,3.1-.7,1.3-1.1,2.8-1.1,4.5s.4,3.2,1.1,4.5c.8,1.3,1.8,2.4,3.2,3.1s3,1.1,4.8,1.1,2.7-.2,3.9-.7c1.1-.5,2-1.2,2.8-2l-2.5-2.8c-.5.5-1.1,1-1.8,1.2-.6.3-1.4.4-2.2.4s-1.8-.2-2.5-.6c-.7-.4-1.2-.9-1.6-1.6-.2-.4-.4-.8-.5-1.3h12.2c0-.2,0-.4,0-.7,0-.2,0-.5,0-.6,0-1.8-.4-3.4-1.1-4.7-.7-1.3-1.7-2.3-3-3ZM277,21.6c.6-.4,1.3-.6,2.1-.6s1.5.2,2.1.6c.6.4,1.1.9,1.4,1.5.2.4.4.9.4,1.5h-7.9c0-.5.2-1,.4-1.4.3-.7.8-1.2,1.4-1.6Z"/>
      <path class="st6" d="M297.1,30.9c-.6,0-1.1-.2-1.4-.6-.3-.4-.5-1-.5-1.7v-6.9h4v-3.8h-4v-4.1h-4.7v4.1h-2.5v3.8h2.5v7c0,2,.5,3.5,1.6,4.6,1.1,1,2.5,1.5,4.4,1.5s1.4,0,2.1-.3c.7-.2,1.2-.4,1.7-.8l-1.2-3.5c-.5.4-1.2.6-1.9.6Z"/>
      <path class="st6" d="M314.3,19.2c-1.4-1.2-3.3-1.8-5.7-1.8s-2.5.2-3.8.5c-1.2.3-2.3.9-3.2,1.5l1.6,3.4c.6-.5,1.3-.9,2.1-1.2.8-.3,1.7-.4,2.5-.4,1.3,0,2.2.3,2.8.9.6.6.9,1.4.9,2.5h0s-3.7,0-3.7,0c-1.7,0-3,.2-4,.6-1,.4-1.8,1-2.2,1.8-.5.8-.7,1.6-.7,2.6s.2,1.8.7,2.6c.5.8,1.2,1.4,2.1,1.9.9.5,2,.7,3.2.7s2.6-.3,3.5-.9c.6-.4,1.1-.9,1.4-1.5v2.1h4.4v-9.7c0-2.6-.7-4.5-2-5.7ZM310.4,30.9c-.6.4-1.3.6-2.1.6s-1.4-.2-1.9-.6c-.5-.4-.7-.9-.7-1.5s.2-1,.6-1.4c.4-.4,1.2-.6,2.3-.6h3.2v1.7c-.3.8-.7,1.4-1.3,1.7Z"/>
      <path class="st6" d="M333.1,18.1c-1-.5-2.2-.8-3.4-.8s-2.6.3-3.7.9c-.6.4-1.2.8-1.6,1.4v-2h-4.5v17h4.7v-8.4c0-1.1.2-1.9.5-2.6.3-.7.8-1.1,1.4-1.5.6-.3,1.3-.5,2-.5s1.8.3,2.4,1c.6.7.9,1.7.9,3v9h4.7v-9.7c0-1.7-.3-3.1-.9-4.3-.6-1.1-1.4-1.9-2.4-2.5Z"/>
      <path class="st6" d="M355.2,21.5c-.8-1.3-1.8-2.4-3.1-3.1-1.3-.7-2.9-1.1-4.6-1.1s-3.2.4-4.5,1.1c-1.3.7-2.4,1.8-3.1,3.1-.8,1.3-1.1,2.8-1.1,4.5s.4,3.2,1.1,4.5c.8,1.3,1.8,2.4,3.1,3.1,1.3.8,2.8,1.1,4.5,1.1s3.2-.4,4.6-1.1c1.3-.8,2.4-1.8,3.1-3.1.8-1.3,1.1-2.8,1.1-4.5s-.4-3.2-1.1-4.5ZM351,28.6c-.4.7-.9,1.3-1.5,1.6-.6.4-1.3.6-2.1.6s-1.4-.2-2.1-.6c-.6-.4-1.1-.9-1.5-1.6-.4-.7-.6-1.6-.6-2.5s.2-1.8.6-2.5c.4-.7.9-1.2,1.5-1.6.6-.4,1.3-.6,2.1-.6s1.5.2,2.1.6,1.1.9,1.5,1.6c.4.7.6,1.5.6,2.5s-.2,1.8-.6,2.5Z"/>
    </g>
    <g>
      <polygon class="st6" points="156.8 54.9 151.9 46.5 150.9 46.5 150.9 57.8 152 57.8 152 48.8 156.5 56.4 157.1 56.4 161.5 48.8 161.5 57.8 162.7 57.8 162.7 46.5 161.7 46.5 156.8 54.9"/>
      <path class="st6" d="M178.8,52.9c0,1.3-.3,2.3-.9,3-.6.6-1.5,1-2.6,1s-2-.3-2.6-1c-.6-.6-.9-1.6-.9-3v-6.5h-1.2v6.5c0,1.6.4,2.9,1.2,3.7.8.8,2,1.2,3.4,1.2s2.6-.4,3.4-1.2c.8-.8,1.2-2.1,1.2-3.7v-6.5h-1.2v6.5Z"/>
      <polygon class="st6" points="196.2 55.7 188.9 46.5 187.9 46.5 187.9 57.8 189.1 57.8 189.1 48.6 196.4 57.8 197.4 57.8 197.4 46.5 196.2 46.5 196.2 55.7"/>
      <rect class="st6" x="205.4" y="46.5" width="1.2" height="11.4"/>
      <path class="st6" d="M216.2,48.8c.4-.4.9-.8,1.5-1,.6-.2,1.2-.3,1.9-.3s1.3.1,1.8.3c.6.2,1.1.6,1.5,1l.8-.8c-.5-.6-1.1-1-1.8-1.2-.7-.3-1.5-.4-2.3-.4s-1.6.1-2.4.4c-.7.3-1.4.7-1.9,1.2s-1,1.1-1.2,1.8-.4,1.5-.4,2.3.1,1.6.4,2.3c.3.7.7,1.3,1.2,1.8.5.5,1.2.9,1.9,1.2.7.3,1.5.4,2.4.4s1.6-.1,2.3-.4c.7-.3,1.3-.7,1.8-1.2l-.8-.8c-.5.5-1,.8-1.5,1-.6.2-1.2.3-1.8.3s-1.3-.1-1.9-.3c-.6-.2-1.1-.6-1.5-1-.4-.4-.8-.9-1-1.5-.2-.6-.4-1.2-.4-1.9s.1-1.3.4-1.9.6-1.1,1-1.5Z"/>
      <rect class="st6" x="230.7" y="46.5" width="1.2" height="11.4"/>
      <path class="st6" d="M246.7,46.9c-.7-.3-1.5-.5-2.5-.5h-4.2v11.4h1.2v-3.6h3c1,0,1.8-.2,2.5-.5.7-.3,1.2-.8,1.6-1.3.4-.6.6-1.3.6-2.1s-.2-1.5-.6-2.1c-.4-.6-.9-1-1.6-1.3ZM246.8,52.5c-.6.5-1.5.7-2.6.7h-3v-5.7h3c1.1,0,2,.2,2.6.7.6.5.9,1.2.9,2.1s-.3,1.6-.9,2.1Z"/>
      <rect class="st6" x="255.9" y="46.5" width="1.2" height="11.4"/>
      <path class="st6" d="M275.7,49.9c-.3-.7-.7-1.3-1.2-1.8-.5-.5-1.2-.9-1.9-1.2-.7-.3-1.5-.4-2.4-.4s-1.7.1-2.4.4c-.7.3-1.4.7-1.9,1.2-.5.5-1,1.1-1.2,1.8s-.4,1.5-.4,2.3.1,1.6.4,2.3.7,1.3,1.2,1.8c.5.5,1.2.9,1.9,1.2.7.3,1.5.4,2.4.4s1.6-.1,2.4-.4c.7-.3,1.4-.7,1.9-1.2.5-.5,1-1.1,1.2-1.8.3-.7.4-1.5.4-2.3s-.1-1.6-.4-2.3ZM274.5,54c-.2.6-.6,1.1-1,1.5s-.9.8-1.5,1c-.6.2-1.2.3-1.9.3s-1.3-.1-1.9-.3c-.6-.2-1.1-.6-1.5-1-.4-.4-.8-.9-1-1.5-.2-.6-.4-1.2-.4-1.9s.1-1.3.4-1.9.6-1.1,1-1.5.9-.8,1.5-1c.6-.2,1.2-.3,1.9-.3s1.3.1,1.9.3c.6.2,1.1.6,1.5,1,.4.4.8.9,1,1.5s.4,1.2.4,1.9-.1,1.3-.4,1.9Z"/>
    </g>
  </g>
</svg>