<?xml version="1.0" encoding="UTF-8"?>
<svg id="Capa_1" xmlns="http://www.w3.org/2000/svg" version="1.1" viewBox="0 0 443.1 46.5">
  <!-- Generator: Adobe Illustrator 29.4.0, SVG Export Plug-In . SVG Version: 2.1.0 Build 152)  -->
  <defs>
    <style>
      .st0 {
        fill: #008dc2;
      }

      .st0, .st1, .st2, .st3, .st4 {
        fill-rule: evenodd;
      }

      .st1 {
        fill: #07638a;
      }

      .st5 {
        fill: #5f7e2b;
      }

      .st2 {
        fill: #f9ae20;
      }

      .st3 {
        fill: #f18419;
      }

      .st4 {
        fill: #7fa12c;
      }
    </style>
  </defs>
  <g>
    <path class="st4" d="M109.3,12.2C93.9.2,53.2,44.2,53.9,45.2c.2.3,42.3-.9,47.6-1.7,8.1-1.2,10.9-6.3,11.8-9.1,3-9.3,0-19.1-3.9-22.2M78.6,45.1c0,0,0,0,0,0"/>
    <path class="st0" d="M49.3,44.3c-.6-.2-1.3-.4-2.2-.6.9.2,1.6.4,2.2.6-3.4-3.4-24-21.3-35.4-27.8-5.6-3.2-8.9.6-10.9,3.7-1,1.6-1.8,3.6-2.4,5.9C.2,28.4,0,31.1,0,33.7v1.1c.4,4.1,1.8,7.8,4.7,9.8,3.7,2.3,7,2.3,26.3,1.2h0c4.6-.3,10.5-.5,18.2-.7.6,0,.6-.3,0-.8"/>
    <path class="st2" d="M51.6,38.3c6.3-7.5,21.7-22.6,36.3-30-6.7-4.7-14.8-7.5-23.5-7.5-14.4,0-27.1,7.6-34.8,19.2,8.8,6.7,18,14.6,22,18.3"/>
    <path class="st1" d="M49.3,44.3c-.8-.8-2.7-2.5-5.1-4.7,0,.2,0,.3-.5.3-7.7.2-13.6.4-18.2.7h0c-15.4.9-20.6,1.1-24,0,.8,1.6,1.8,3,3.2,4,3.7,2.3,7,2.3,26.3,1.2h0c4.6-.3,10.5-.5,18.2-.7.6,0-.4-1,0-.8"/>
    <path class="st3" d="M44.1,31.7c3.1,2.7,5.8,5,7.5,6.6,6.3-7.4,21.6-22.5,36.2-29.9-11.1-4.9-31.5,11.6-43.7,23.4"/>
    <path class="st5" d="M109.3,12.2c-.7-.5-1.4-.9-2.2-1.3,1.5,4.9,1.8,11.2-.2,17.3-1,3.1-4.2,8.9-13.3,10.3-3.5.5-21.4,1.2-35.7,1.6-2.7,2.9-4.2,4.8-4.1,5,.2.3,42.3-.9,47.6-1.7,8.1-1.2,10.9-6.3,11.8-9.1,3-9.3,0-19.1-3.9-22.2M67.7,40.5q0,0,0,0"/>
  </g>
  <g>
    <path d="M143.7,21.9c-1.4,0-2.7-.2-3.9-.7-1.2-.4-2.2-1.1-3.1-1.9s-1.6-1.8-2.1-2.9c-.5-1.1-.7-2.4-.7-3.7s.2-2.6.7-3.7,1.2-2.1,2.1-2.9c.9-.8,1.9-1.5,3.1-1.9,1.2-.4,2.5-.7,3.9-.7s3.1.3,4.4.8c1.3.6,2.4,1.4,3.2,2.5l-3.2,2.9c-.6-.7-1.2-1.2-1.9-1.5-.7-.4-1.5-.5-2.3-.5s-1.4.1-2,.4c-.6.2-1.1.6-1.6,1-.4.4-.8,1-1,1.6s-.4,1.3-.4,2.1.1,1.5.4,2.1c.2.6.6,1.2,1,1.6.4.4,1,.8,1.6,1,.6.2,1.3.4,2,.4s1.6-.2,2.3-.5c.7-.4,1.3-.9,1.9-1.6l3.2,2.9c-.9,1.1-1.9,1.9-3.2,2.5-1.3.6-2.8.9-4.4.9Z"/>
    <path d="M160.1,21.8c-1.6,0-3.1-.3-4.3-.9-1.2-.6-2.1-1.5-2.8-2.5-.7-1.1-1-2.3-1-3.6s.3-2.6,1-3.7c.7-1.1,1.5-1.9,2.7-2.5s2.4-.9,3.9-.9,2.6.3,3.7.8c1.1.6,2,1.4,2.7,2.4.7,1.1,1,2.3,1,3.9s0,.4,0,.6c0,.2,0,.4,0,.6h-10.9v-2.5h8.3l-1.8.7c0-.6,0-1.1-.3-1.6-.2-.5-.6-.8-1-1.1-.4-.3-.9-.4-1.5-.4s-1.1.1-1.5.4c-.4.3-.8.6-1,1.1-.2.5-.3,1-.3,1.6v.7c0,.7.1,1.3.4,1.7.3.5.7.9,1.2,1.1.5.3,1.1.4,1.9.4s1.3,0,1.7-.3c.5-.2.9-.5,1.4-.9l2.5,2.7c-.6.7-1.4,1.3-2.4,1.6s-2.1.6-3.4.6Z"/>
    <path d="M178.1,7.6c1.1,0,2,.2,2.9.7.9.4,1.5,1.1,2,2,.5.9.7,2.1.7,3.5v7.9h-4.8v-7.1c0-1-.2-1.7-.6-2.1-.4-.4-.9-.7-1.6-.7s-1,.1-1.4.3c-.4.2-.8.6-1,1.1-.2.5-.4,1.1-.4,1.9v6.6h-4.8V7.8h4.6v3.9l-.9-1.1c.5-1,1.2-1.7,2.2-2.2.9-.5,1.9-.8,3.1-.8Z"/>
    <path d="M185.4,11.9v-3.6h10v3.6h-10ZM193,21.8c-1.8,0-3.1-.4-4.1-1.3-1-.9-1.5-2.2-1.5-3.9V4.7h4.8v11.7c0,.5.1.9.4,1.2s.6.4,1.1.4,1-.1,1.5-.4l1.2,3.3c-.4.3-1,.5-1.5.6s-1.2.2-1.8.2Z"/>
    <path d="M198.2,21.6V7.8h4.6v4l-.7-1.1c.4-1,1.1-1.8,2-2.3.9-.5,2-.8,3.3-.8v4.4c-.2,0-.4,0-.6,0-.2,0-.3,0-.5,0-1,0-1.8.3-2.4.8-.6.5-.9,1.4-.9,2.6v6.3h-4.8Z"/>
    <path d="M216.1,21.8c-1.5,0-2.8-.3-4-.9-1.2-.6-2.1-1.4-2.8-2.5-.7-1.1-1-2.3-1-3.7s.3-2.6,1-3.7c.7-1.1,1.6-1.9,2.8-2.5,1.2-.6,2.5-.9,4-.9s2.8.3,4,.9,2.1,1.4,2.8,2.5c.7,1.1,1,2.3,1,3.7s-.3,2.6-1,3.7-1.6,1.9-2.8,2.5-2.5.9-4,.9ZM216.1,18c.5,0,1-.1,1.5-.4.4-.3.8-.6,1-1.1.3-.5.4-1.1.4-1.8s-.1-1.3-.4-1.8c-.3-.5-.6-.8-1-1.1-.4-.3-.9-.4-1.5-.4s-1,.1-1.5.4c-.4.3-.8.6-1,1.1s-.4,1.1-.4,1.8.1,1.3.4,1.8c.3.5.6.9,1,1.1.4.3.9.4,1.5.4Z"/>
    <path d="M239.5,21.8c-1.2,0-2.4-.3-3.4-.9-1-.6-1.8-1.4-2.4-2.5-.6-1.1-.9-2.3-.9-3.8s.3-2.7.9-3.8c.6-1.1,1.4-1.9,2.4-2.5,1-.6,2.2-.9,3.4-.9s2.2.3,3,.8c.8.5,1.5,1.3,1.9,2.3.4,1,.6,2.4.6,4s-.2,3-.6,4c-.4,1-1,1.8-1.8,2.3-.8.5-1.8.8-3.1.8ZM240.5,18c.5,0,1-.1,1.5-.4s.8-.6,1-1.1c.3-.5.4-1.1.4-1.8s-.1-1.3-.4-1.8c-.3-.5-.6-.8-1-1.1s-.9-.4-1.5-.4-1.1.1-1.5.4c-.4.3-.8.6-1,1.1s-.4,1.1-.4,1.8.1,1.3.4,1.8c.3.5.6.9,1,1.1.4.3.9.4,1.5.4ZM243.5,21.6v-6.9s-.2-4.5-.2-4.5V2.7h4.8v18.8h-4.6Z"/>
    <path d="M258.4,21.8c-1.6,0-3.1-.3-4.3-.9-1.2-.6-2.1-1.5-2.8-2.5-.7-1.1-1-2.3-1-3.6s.3-2.6,1-3.7c.7-1.1,1.5-1.9,2.7-2.5,1.1-.6,2.4-.9,3.9-.9s2.6.3,3.7.8c1.1.6,2,1.4,2.7,2.4.7,1.1,1,2.3,1,3.9s0,.4,0,.6c0,.2,0,.4,0,.6h-10.9v-2.5h8.3l-1.8.7c0-.6,0-1.1-.3-1.6-.2-.5-.6-.8-1-1.1-.4-.3-.9-.4-1.5-.4s-1.1.1-1.5.4c-.4.3-.8.6-1,1.1-.2.5-.3,1-.3,1.6v.7c0,.7.1,1.3.4,1.7.3.5.7.9,1.2,1.1.5.3,1.1.4,1.9.4s1.3,0,1.7-.3c.5-.2.9-.5,1.4-.9l2.5,2.7c-.6.7-1.4,1.3-2.4,1.6-1,.4-2.1.6-3.4.6Z"/>
    <path d="M284,21.9c-1.4,0-2.7-.2-3.9-.7-1.2-.5-2.3-1.1-3.1-1.9-.9-.8-1.6-1.8-2.1-2.9-.5-1.1-.7-2.4-.7-3.7s.2-2.5.7-3.7c.5-1.1,1.2-2.1,2.1-2.9.9-.8,1.9-1.5,3.1-1.9s2.5-.7,3.9-.7,2.7.2,3.9.7,2.2,1.1,3.1,1.9c.9.8,1.6,1.8,2.1,2.9.5,1.1.7,2.3.7,3.7s-.2,2.6-.7,3.7c-.5,1.1-1.2,2.1-2.1,2.9-.9.8-1.9,1.5-3.1,1.9s-2.5.7-3.9.7ZM284,17.7c.7,0,1.3-.1,1.9-.4.6-.2,1.1-.6,1.5-1,.4-.4.8-1,1-1.6.2-.6.4-1.3.4-2.1s-.1-1.5-.4-2.1-.6-1.1-1-1.6c-.4-.4-.9-.8-1.5-1-.6-.2-1.2-.4-1.9-.4s-1.3.1-1.9.4c-.6.2-1.1.6-1.5,1-.4.4-.8,1-1,1.6-.2.6-.4,1.3-.4,2.1s.1,1.5.4,2.1c.2.6.6,1.1,1,1.6.4.4,1,.8,1.5,1,.6.2,1.2.4,1.9.4Z"/>
    <path d="M296.3,26.5V7.8h4.6v6.9c0,0,.2,4.5.2,4.5v7.2h-4.8ZM304.9,21.8c-1.2,0-2.2-.3-3-.8s-1.5-1.3-1.9-2.3-.6-2.4-.6-4,.2-3,.6-4c.4-1,1-1.8,1.8-2.3.8-.5,1.8-.8,3.1-.8s2.4.3,3.4.9c1,.6,1.8,1.4,2.4,2.5s.9,2.3.9,3.8-.3,2.7-.9,3.8-1.4,1.9-2.4,2.5c-1,.6-2.2.9-3.4.9ZM303.9,18c.5,0,1-.1,1.5-.4.4-.3.8-.6,1-1.1.3-.5.4-1.1.4-1.7s-.1-1.3-.4-1.8c-.3-.5-.6-.8-1-1.1-.4-.3-.9-.4-1.5-.4s-1,.1-1.5.4c-.4.3-.8.6-1,1.1-.3.5-.4,1.1-.4,1.8s.1,1.3.4,1.7c.3.5.6.9,1,1.1.4.3.9.4,1.5.4Z"/>
    <path d="M321.1,21.8c-1.6,0-3.1-.3-4.3-.9-1.2-.6-2.1-1.5-2.8-2.5-.7-1.1-1-2.3-1-3.6s.3-2.6,1-3.7c.7-1.1,1.5-1.9,2.7-2.5,1.1-.6,2.4-.9,3.9-.9s2.6.3,3.7.8c1.1.6,2,1.4,2.7,2.4.7,1.1,1,2.3,1,3.9s0,.4,0,.6c0,.2,0,.4,0,.6h-10.9v-2.5h8.3l-1.8.7c0-.6,0-1.1-.3-1.6-.2-.5-.6-.8-1-1.1-.4-.3-.9-.4-1.5-.4s-1.1.1-1.5.4c-.4.3-.8.6-1,1.1-.2.5-.3,1-.3,1.6v.7c0,.7.1,1.3.4,1.7.3.5.7.9,1.2,1.1.5.3,1.1.4,1.9.4s1.3,0,1.7-.3c.5-.2.9-.5,1.4-.9l2.5,2.7c-.6.7-1.4,1.3-2.4,1.6-1,.4-2.1.6-3.4.6Z"/>
    <path d="M330.2,21.6V7.8h4.6v4l-.7-1.1c.4-1,1.1-1.8,2-2.3.9-.5,2-.8,3.3-.8v4.4c-.2,0-.4,0-.6,0-.2,0-.3,0-.5,0-1,0-1.8.3-2.4.8-.6.5-.9,1.4-.9,2.6v6.3h-4.8Z"/>
    <path d="M344.9,21.8c-1.1,0-2-.2-2.8-.6-.8-.4-1.4-.9-1.7-1.5-.4-.6-.6-1.4-.6-2.1s.2-1.6.6-2.2c.4-.6,1.1-1.1,2-1.4s2.1-.5,3.5-.5h3.2v2.5h-2.6c-.8,0-1.3.1-1.6.4s-.5.6-.5,1,.2.7.5,1,.8.4,1.3.4,1-.1,1.5-.4.7-.7.9-1.2l.7,1.8c-.3.9-.7,1.7-1.5,2.1-.7.5-1.7.7-2.9.7ZM348.9,21.6v-2.6l-.3-.6v-4.7c0-.8-.2-1.3-.7-1.8-.5-.4-1.2-.6-2.2-.6s-1.3.1-2,.3-1.3.5-1.7.8l-1.6-3.2c.8-.5,1.7-.9,2.8-1.2,1.1-.3,2.2-.4,3.3-.4,2.2,0,4,.5,5.2,1.5,1.2,1,1.8,2.6,1.8,4.8v7.6h-4.5Z"/>
    <path d="M363.6,21.8c-1.5,0-2.9-.3-4.1-.9-1.2-.6-2.1-1.4-2.8-2.5-.7-1.1-1-2.3-1-3.7s.3-2.6,1-3.7c.7-1.1,1.6-1.9,2.8-2.5,1.2-.6,2.5-.9,4.1-.9s2.9.3,4,1c1.1.7,1.9,1.6,2.4,2.8l-3.7,1.9c-.3-.6-.7-1.1-1.2-1.4-.5-.3-1-.4-1.5-.4s-1.1.1-1.5.4c-.4.3-.8.6-1.1,1.1s-.4,1.1-.4,1.8.1,1.3.4,1.8c.3.5.6.9,1.1,1.1.4.3,1,.4,1.5.4s1.1-.1,1.5-.4c.5-.3.9-.8,1.2-1.4l3.7,1.9c-.5,1.2-1.3,2.1-2.4,2.8-1.1.7-2.5,1-4,1Z"/>
    <path d="M374.3,6.3c-.9,0-1.6-.2-2.1-.7-.5-.5-.8-1.1-.8-1.8s.3-1.3.8-1.8c.5-.5,1.2-.7,2.1-.7s1.6.2,2.1.7c.5.5.8,1,.8,1.7s-.3,1.4-.8,1.9c-.5.5-1.2.8-2.1.8ZM371.9,21.6V7.8h4.8v13.8h-4.8Z"/>
    <path d="M386.7,21.8c-1.5,0-2.8-.3-4-.9-1.2-.6-2.1-1.4-2.8-2.5-.7-1.1-1-2.3-1-3.7s.3-2.6,1-3.7c.7-1.1,1.6-1.9,2.8-2.5,1.2-.6,2.5-.9,4-.9s2.8.3,4,.9,2.1,1.4,2.8,2.5c.7,1.1,1,2.3,1,3.7s-.3,2.6-1,3.7-1.6,1.9-2.8,2.5-2.5.9-4,.9ZM386.7,18c.5,0,1-.1,1.5-.4.4-.3.8-.6,1-1.1.3-.5.4-1.1.4-1.8s-.1-1.3-.4-1.8c-.3-.5-.6-.8-1-1.1-.4-.3-.9-.4-1.5-.4s-1,.1-1.5.4c-.4.3-.8.6-1,1.1s-.4,1.1-.4,1.8.1,1.3.4,1.8c.3.5.6.9,1,1.1.4.3.9.4,1.5.4Z"/>
    <path d="M405.6,7.6c1.1,0,2,.2,2.9.7s1.5,1.1,2,2c.5.9.7,2.1.7,3.5v7.9h-4.8v-7.1c0-1-.2-1.7-.6-2.1-.4-.4-.9-.7-1.6-.7s-1,.1-1.4.3c-.4.2-.8.6-1,1.1-.2.5-.4,1.1-.4,1.9v6.6h-4.8V7.8h4.6v3.9l-.9-1.1c.5-1,1.2-1.7,2.2-2.2.9-.5,1.9-.8,3.1-.8Z"/>
    <path d="M421.7,21.8c-1.6,0-3.1-.3-4.3-.9-1.2-.6-2.1-1.5-2.8-2.5-.7-1.1-1-2.3-1-3.6s.3-2.6,1-3.7c.7-1.1,1.5-1.9,2.7-2.5,1.1-.6,2.4-.9,3.9-.9s2.6.3,3.7.8c1.1.6,2,1.4,2.7,2.4.7,1.1,1,2.3,1,3.9s0,.4,0,.6c0,.2,0,.4,0,.6h-10.9v-2.5h8.3l-1.8.7c0-.6,0-1.1-.3-1.6-.2-.5-.6-.8-1-1.1-.4-.3-.9-.4-1.5-.4s-1.1.1-1.5.4c-.4.3-.8.6-1,1.1-.2.5-.3,1-.3,1.6v.7c0,.7.1,1.3.4,1.7.3.5.7.9,1.2,1.1.5.3,1.1.4,1.9.4s1.3,0,1.7-.3c.5-.2.9-.5,1.4-.9l2.5,2.7c-.6.7-1.4,1.3-2.4,1.6-1,.4-2.1.6-3.4.6Z"/>
    <path d="M435.8,21.8c-1.2,0-2.3-.1-3.4-.4-1.1-.3-2-.6-2.7-1l1.4-3.3c.7.4,1.4.7,2.3.9s1.7.4,2.5.4,1.4,0,1.7-.3c.3-.2.5-.4.5-.7s-.1-.4-.4-.6c-.3-.1-.7-.2-1.2-.3-.5,0-1-.1-1.6-.2-.6,0-1.1-.2-1.7-.4s-1.1-.4-1.6-.7c-.5-.3-.9-.7-1.2-1.2-.3-.5-.4-1.1-.4-1.9s.3-1.7.8-2.3,1.3-1.2,2.3-1.6c1-.4,2.2-.6,3.7-.6s1.9.1,2.9.3c1,.2,1.8.5,2.5.9l-1.4,3.3c-.7-.4-1.4-.7-2-.8s-1.3-.2-1.9-.2-1.4,0-1.7.3c-.3.2-.5.4-.5.7s.2.5.5.6c.3.1.7.3,1.2.3.5,0,1,.2,1.6.2.6,0,1.2.2,1.7.3.6.2,1.1.4,1.6.7.5.3.9.7,1.2,1.2.3.5.4,1.1.4,1.9s-.3,1.6-.8,2.3c-.5.7-1.3,1.2-2.3,1.6-1,.4-2.3.6-3.8.6Z"/>
  </g>
  <g>
    <path d="M135,40.3v-11.8h1l5.4,9.2h-.5l5.3-9.2h1v11.8h-1.2v-9.9h.3l-4.9,8.4h-.6l-4.9-8.4h.3v9.9h-1.2Z"/>
    <path d="M158,40.4c-1.5,0-2.7-.4-3.5-1.3-.9-.9-1.3-2.1-1.3-3.8v-6.7h1.2v6.7c0,1.4.3,2.4.9,3.1.6.7,1.5,1,2.7,1s2-.3,2.7-1c.6-.7.9-1.7.9-3.1v-6.7h1.2v6.7c0,1.7-.4,3-1.3,3.8-.9.9-2,1.3-3.5,1.3Z"/>
    <path d="M168.8,40.3v-11.8h1l8.1,10.2h-.5v-10.2h1.2v11.8h-1l-8.1-10.2h.5v10.2h-1.2Z"/>
    <path d="M184.6,40.3v-11.8h1.2v11.8h-1.2Z"/>
    <path d="M197,40.4c-.9,0-1.7-.1-2.5-.4s-1.4-.7-2-1.3-1-1.2-1.3-1.9c-.3-.7-.5-1.5-.5-2.4s.2-1.7.5-2.4c.3-.7.7-1.4,1.3-1.9s1.2-1,2-1.3,1.6-.4,2.5-.4,1.7.1,2.4.4c.8.3,1.4.7,1.9,1.3l-.8.8c-.5-.5-1-.8-1.6-1.1-.6-.2-1.2-.3-1.9-.3s-1.4.1-2,.4c-.6.2-1.1.6-1.6,1-.4.4-.8,1-1.1,1.5-.3.6-.4,1.2-.4,1.9s.1,1.4.4,1.9c.3.6.6,1.1,1.1,1.5.4.4,1,.8,1.6,1,.6.2,1.3.4,2,.4s1.3-.1,1.9-.3c.6-.2,1.1-.6,1.6-1.1l.8.8c-.5.6-1.1,1-1.9,1.3-.8.3-1.6.4-2.4.4Z"/>
    <path d="M206.2,40.3v-11.8h1.2v11.8h-1.2Z"/>
    <path d="M213.5,40.3v-11.8h4.4c1,0,1.9.2,2.6.5.7.3,1.3.8,1.7,1.4s.6,1.3.6,2.2-.2,1.5-.6,2.1-.9,1.1-1.7,1.4c-.7.3-1.6.5-2.6.5h-3.7l.6-.6v4.3h-1.2ZM214.7,36.1l-.6-.6h3.7c1.2,0,2.1-.3,2.7-.8.6-.5.9-1.2.9-2.2s-.3-1.7-.9-2.2c-.6-.5-1.5-.8-2.7-.8h-3.7l.6-.6v7.1Z"/>
    <path d="M225.1,40.3l5.4-11.8h1.2l5.4,11.8h-1.3l-4.9-11h.5l-4.9,11h-1.3ZM227.2,37.2l.4-1h6.8l.4,1h-7.6Z"/>
    <path d="M241.3,40.3v-11.8h1.2v10.7h6.6v1.1h-7.8Z"/>
    <path d="M254.6,39.2h7.1v1.1h-8.3v-11.8h8.1v1.1h-6.8v9.6ZM254.5,33.8h6.2v1.1h-6.2v-1.1Z"/>
    <path d="M270,40.4c-.9,0-1.7-.1-2.5-.4-.8-.3-1.4-.7-1.9-1.1l.5-1c.4.4,1,.7,1.7,1s1.4.4,2.2.4,1.3,0,1.8-.3c.5-.2.8-.4,1-.7s.3-.7.3-1-.1-.8-.4-1.1-.6-.5-1-.7c-.4-.2-.9-.3-1.4-.4-.5-.1-1-.3-1.5-.4-.5-.1-1-.3-1.4-.6s-.8-.5-1-.9-.4-.9-.4-1.5.2-1.1.5-1.6c.3-.5.8-.9,1.4-1.2.6-.3,1.5-.4,2.5-.4s1.3,0,2,.3c.6.2,1.2.4,1.7.8l-.4,1c-.5-.3-1-.6-1.6-.7-.6-.2-1.1-.2-1.6-.2s-1.3,0-1.7.3c-.5.2-.8.4-1,.8s-.3.7-.3,1.1.1.8.4,1.1c.3.3.6.5,1,.7.4.2.9.3,1.4.4s1,.3,1.5.4c.5.1,1,.3,1.4.6.4.2.8.5,1,.9.3.4.4.9.4,1.5s-.2,1.1-.5,1.6-.8.9-1.4,1.2-1.5.4-2.5.4Z"/>
    <path d="M289.2,40.4c-.9,0-1.7-.1-2.5-.4-.8-.3-1.4-.7-1.9-1.1l.5-1c.4.4,1,.7,1.7,1s1.4.4,2.2.4,1.3,0,1.8-.3c.5-.2.8-.4,1-.7s.3-.7.3-1-.1-.8-.4-1.1-.6-.5-1-.7c-.4-.2-.9-.3-1.4-.4-.5-.1-1-.3-1.5-.4-.5-.1-1-.3-1.4-.6s-.8-.5-1-.9-.4-.9-.4-1.5.2-1.1.5-1.6c.3-.5.8-.9,1.4-1.2.6-.3,1.5-.4,2.5-.4s1.3,0,2,.3c.6.2,1.2.4,1.7.8l-.4,1c-.5-.3-1-.6-1.6-.7-.6-.2-1.1-.2-1.6-.2s-1.3,0-1.7.3c-.5.2-.8.4-1,.8s-.3.7-.3,1.1.1.8.4,1.1c.3.3.6.5,1,.7.4.2.9.3,1.4.4s1,.3,1.5.4c.5.1,1,.3,1.4.6.4.2.8.5,1,.9.3.4.4.9.4,1.5s-.2,1.1-.5,1.6-.8.9-1.4,1.2-1.5.4-2.5.4Z"/>
    <path d="M296.6,40.3l5.4-11.8h1.2l5.4,11.8h-1.3l-4.9-11h.5l-4.9,11h-1.3ZM298.7,37.2l.4-1h6.8l.4,1h-7.6Z"/>
    <path d="M312.7,40.3v-11.8h1l8.1,10.2h-.5v-10.2h1.2v11.8h-1l-8.1-10.2h.5v10.2h-1.2Z"/>
    <path d="M340.3,40.4c-.9,0-1.7-.1-2.5-.4s-1.4-.7-2-1.3-1-1.2-1.3-1.9c-.3-.7-.5-1.5-.5-2.4s.2-1.7.5-2.4c.3-.7.7-1.4,1.3-1.9s1.2-1,2-1.3,1.6-.4,2.5-.4,1.7.1,2.4.4c.8.3,1.4.7,1.9,1.3l-.8.8c-.5-.5-1-.8-1.6-1.1-.6-.2-1.2-.3-1.9-.3s-1.4.1-2,.4c-.6.2-1.1.6-1.6,1-.4.4-.8,1-1.1,1.5-.3.6-.4,1.2-.4,1.9s.1,1.4.4,1.9c.3.6.6,1.1,1.1,1.5.4.4,1,.8,1.6,1,.6.2,1.3.4,2,.4s1.3-.1,1.9-.3c.6-.2,1.1-.6,1.6-1.1l.8.8c-.5.6-1.1,1-1.9,1.3-.8.3-1.6.4-2.4.4Z"/>
    <path d="M347.3,40.3l5.4-11.8h1.2l5.4,11.8h-1.3l-4.9-11h.5l-4.9,11h-1.3ZM349.4,37.2l.4-1h6.8l.4,1h-7.6Z"/>
    <path d="M365.6,40.3v-4.4l.3.8-5-8.2h1.3l4.4,7.2h-.7l4.4-7.2h1.2l-5,8.2.3-.8v4.4h-1.2Z"/>
    <path d="M376.6,39.2h7.1v1.1h-8.3v-11.8h8.1v1.1h-6.8v9.6ZM376.5,33.8h6.2v1.1h-6.2v-1.1Z"/>
    <path d="M391.1,40.3v-10.7h-4.1v-1.1h9.5v1.1h-4.1v10.7h-1.2Z"/>
    <path d="M398.2,40.3l5.4-11.8h1.2l5.4,11.8h-1.3l-4.9-11h.5l-4.9,11h-1.3ZM400.3,37.2l.4-1h6.8l.4,1h-7.6Z"/>
    <path d="M414.4,40.3v-11.8h1l8.1,10.2h-.5v-10.2h1.2v11.8h-1l-8.1-10.2h.5v10.2h-1.2Z"/>
    <path d="M435.4,40.4c-.9,0-1.7-.1-2.5-.4-.8-.3-1.4-.7-2-1.3-.6-.5-1-1.2-1.3-1.9-.3-.7-.5-1.5-.5-2.4s.2-1.7.5-2.4c.3-.7.7-1.4,1.3-1.9.6-.5,1.2-1,2-1.3s1.6-.4,2.5-.4,1.7.1,2.5.4c.8.3,1.4.7,2,1.3s1,1.2,1.3,1.9c.3.7.5,1.5.5,2.4s-.2,1.7-.5,2.4c-.3.7-.7,1.4-1.3,1.9s-1.2,1-2,1.3c-.8.3-1.6.4-2.5.4ZM435.4,39.3c.7,0,1.4-.1,2-.4s1.1-.6,1.6-1,.8-1,1-1.5c.2-.6.4-1.2.4-1.9s-.1-1.4-.4-1.9c-.2-.6-.6-1.1-1-1.5s-1-.8-1.6-1-1.3-.4-2-.4-1.4.1-2,.4c-.6.2-1.1.6-1.6,1-.4.4-.8,1-1,1.5-.2.6-.4,1.2-.4,1.9s.1,1.3.4,1.9c.2.6.6,1.1,1,1.6.4.4,1,.8,1.6,1,.6.2,1.3.4,2,.4Z"/>
  </g>
</svg>