<?xml version="1.0" encoding="UTF-8"?>
<svg id="Capa_1" xmlns="http://www.w3.org/2000/svg" version="1.1" viewBox="0 0 196.7 207.5">
  <!-- Generator: Adobe Illustrator 29.4.0, SVG Export Plug-In . SVG Version: 2.1.0 Build 152)  -->
  <defs>
    <style>
      .st0 {
        fill: none;
      }

      .st1 {
        fill: #f18419;
      }

      .st2 {
        fill: #07638a;
      }

      .st3 {
        fill: #015397;
      }

      .st4 {
        fill: #f9ae20;
      }

      .st5 {
        fill: #7fa12c;
      }

      .st6 {
        fill: #008dc2;
      }

      .st7 {
        fill: #1a6f1c;
      }
    </style>
  </defs>
  <path class="st7" d="M124.6,124.2l17.1,19.7c1.8,1.9,4.9.5,4.8-2.2l-.3-34.7-21.6,17.1Z"/>
  <g>
    <path class="st5" d="M159.3,45.1h2.5v-4.6c0-5.1,4.1-9.2,9.2-9.2h7.2C168.2,13.9,150,1.7,128.8.2l-9.6-.2-23.5,23.1,28.7.2c15.3,0,28.6,8.9,35,21.8Z"/>
    <path class="st5" d="M177,91.1c-1.3.8-2.9,1.2-4.5,1.2h-4.2c-3.9,0-7.2-2.5-8.6-5.9-1,.4-2.1.6-3.3.6h-2.1c-4.8,5.7-11,10.2-18.3,12.5-3.5,10.8-11.2,19.8-21.2,25h9.6c23.2,0,43.4-12.7,54.1-31.5-.6-.6-1.1-1.2-1.5-1.9Z"/>
  </g>
  <g>
    <path d="M20.1,184.5c-2.1,0-4.2-.3-6.2-.8-2-.5-3.5-1.2-4.8-2l2.4-5.4c1.2.7,2.5,1.3,4,1.8,1.5.5,3,.7,4.5.7s1.9,0,2.5-.3c.6-.2,1-.4,1.3-.7s.4-.7.4-1.1-.3-1-.8-1.3c-.5-.3-1.3-.6-2.1-.8-.9-.2-1.8-.5-2.8-.7-1-.2-2.1-.5-3.1-.8-1.1-.3-2-.8-2.9-1.4-.9-.6-1.6-1.3-2.1-2.2-.5-.9-.8-2.1-.8-3.4s.4-2.9,1.3-4.2c.8-1.3,2.1-2.3,3.8-3,1.7-.8,3.8-1.1,6.4-1.1s3.4.2,5,.6c1.6.4,3.1,1,4.3,1.7l-2.2,5.4c-1.2-.7-2.5-1.2-3.7-1.5-1.2-.3-2.4-.5-3.5-.5s-1.8.1-2.4.3c-.6.2-1.1.5-1.3.9-.3.3-.4.7-.4,1.1,0,.6.3,1.1.8,1.4.5.3,1.2.6,2.1.8.9.2,1.8.4,2.9.6,1,.2,2.1.5,3.1.8,1,.3,2,.8,2.9,1.3.9.6,1.6,1.3,2.1,2.2.5.9.8,2,.8,3.4s-.4,2.9-1.3,4.2c-.8,1.3-2.1,2.3-3.8,3-1.7.8-3.8,1.1-6.4,1.1Z"/>
    <path d="M40.9,184.3c-1.6,0-2.9-.3-4-.8-1.1-.5-2-1.3-2.6-2.2-.6-.9-.9-2-.9-3.1s.3-2.3.9-3.2c.6-.9,1.6-1.6,2.9-2.1,1.3-.5,3-.7,5-.7h4.7v3.7h-3.8c-1.1,0-1.9.2-2.4.5-.5.3-.7.8-.7,1.5s.2,1.1.7,1.5c.5.4,1.1.6,1.9.6s1.5-.2,2.1-.6c.6-.4,1.1-1,1.3-1.8l1,2.6c-.4,1.4-1.1,2.4-2.2,3.1-1.1.7-2.5,1.1-4.2,1.1ZM46.8,184v-3.7l-.5-.9v-6.9c0-1.1-.3-2-1-2.6-.7-.6-1.8-.9-3.2-.9s-1.9.2-2.9.5-1.8.7-2.5,1.2l-2.3-4.7c1.1-.7,2.5-1.3,4.1-1.7,1.6-.4,3.2-.6,4.8-.6,3.3,0,5.8.8,7.6,2.3,1.8,1.5,2.7,3.8,2.7,7v11.1h-6.5Z"/>
    <path d="M70.8,163.5c1.6,0,3,.3,4.2,1,1.3.6,2.2,1.6,3,2.9.7,1.3,1.1,3,1.1,5.1v11.5h-7.1v-10.3c0-1.4-.3-2.5-.9-3.1-.6-.7-1.4-1-2.3-1s-1.5.2-2.1.5c-.6.3-1.1.8-1.4,1.5-.3.7-.5,1.6-.5,2.7v9.6h-7v-20.1h6.7v5.7l-1.3-1.7c.8-1.4,1.8-2.5,3.1-3.3,1.3-.8,2.8-1.1,4.5-1.1Z"/>
    <path d="M94,184.3c-2.2,0-4.2-.4-6-1.3-1.7-.9-3.1-2.1-4.1-3.7-1-1.6-1.5-3.3-1.5-5.3s.5-3.8,1.5-5.4c1-1.6,2.3-2.8,4.1-3.7,1.7-.9,3.7-1.3,6-1.3s4.2.5,5.9,1.5,2.8,2.3,3.5,4l-5.4,2.8c-.5-.9-1-1.6-1.7-2.1-.7-.4-1.4-.6-2.3-.6s-1.5.2-2.2.6c-.7.4-1.2.9-1.6,1.6-.4.7-.6,1.6-.6,2.6s.2,1.9.6,2.6c.4.7.9,1.3,1.6,1.6.7.4,1.4.6,2.2.6s1.6-.2,2.3-.6c.7-.4,1.3-1.1,1.7-2.1l5.4,2.8c-.7,1.7-1.9,3.1-3.5,4s-3.6,1.5-5.9,1.5Z"/>
    <path class="st7" d="M103.3,184l11.4-25.9h7.2l11.5,25.9h-7.6l-8.9-22.3h2.9l-8.9,22.3h-7.5ZM109.6,178.9l1.9-5.4h12.6l1.9,5.4h-16.4Z"/>
    <path class="st7" d="M135.1,191.1v-27.2h6.7v10.1c0,0,.3,6.6.3,6.6v10.5h-7ZM147.7,184.3c-1.7,0-3.2-.4-4.4-1.1-1.2-.8-2.1-1.9-2.8-3.4-.6-1.5-.9-3.5-.9-5.8s.3-4.4.9-5.9c.6-1.5,1.5-2.6,2.7-3.4,1.2-.8,2.7-1.1,4.5-1.1s3.5.4,5,1.3c1.5.9,2.7,2.1,3.5,3.6.9,1.5,1.3,3.4,1.3,5.5s-.4,3.9-1.3,5.5c-.9,1.6-2.1,2.7-3.5,3.6-1.5.8-3.1,1.3-5,1.3ZM146.3,178.7c.8,0,1.5-.2,2.1-.6.6-.4,1.1-.9,1.5-1.6.4-.7.6-1.6.6-2.6s-.2-1.9-.6-2.6c-.4-.7-.9-1.2-1.5-1.6-.6-.4-1.3-.6-2.1-.6s-1.5.2-2.1.6c-.6.4-1.1.9-1.5,1.6-.4.7-.6,1.6-.6,2.6s.2,1.8.6,2.6c.4.7.9,1.3,1.5,1.6.6.4,1.3.6,2.1.6Z"/>
    <path class="st7" d="M160.8,191.1v-27.2h6.7v10.1c0,0,.3,6.6.3,6.6v10.5h-7ZM173.4,184.3c-1.7,0-3.2-.4-4.4-1.1-1.2-.8-2.1-1.9-2.8-3.4-.6-1.5-.9-3.5-.9-5.8s.3-4.4.9-5.9c.6-1.5,1.5-2.6,2.7-3.4,1.2-.8,2.7-1.1,4.5-1.1s3.5.4,5,1.3c1.5.9,2.7,2.1,3.5,3.6.9,1.5,1.3,3.4,1.3,5.5s-.4,3.9-1.3,5.5c-.9,1.6-2.1,2.7-3.5,3.6-1.5.8-3.1,1.3-5,1.3ZM172,178.7c.8,0,1.5-.2,2.1-.6.6-.4,1.1-.9,1.5-1.6.4-.7.6-1.6.6-2.6s-.2-1.9-.6-2.6c-.4-.7-.9-1.2-1.5-1.6-.6-.4-1.3-.6-2.1-.6s-1.5.2-2.1.6c-.6.4-1.1.9-1.5,1.6-.4.7-.6,1.6-.6,2.6s.2,1.8.6,2.6c.4.7.9,1.3,1.5,1.6.6.4,1.3.6,2.1.6Z"/>
  </g>
  <g>
    <path d="M13.2,207.5c-.6,0-1.2-.1-1.7-.3s-1-.5-1.3-.9c-.4-.4-.7-.8-.9-1.3-.2-.5-.3-1-.3-1.6s.1-1.1.3-1.6c.2-.5.5-.9.9-1.3.4-.4.8-.7,1.3-.9.5-.2,1.1-.3,1.7-.3s1.2.1,1.7.3c.5.2,1,.5,1.3.9l-.7.7c-.3-.3-.7-.6-1.1-.7-.4-.1-.8-.2-1.2-.2s-.9,0-1.3.2-.7.4-1,.6c-.3.3-.5.6-.7,1-.2.4-.2.8-.2,1.2s0,.8.2,1.2c.2.4.4.7.7,1,.3.3.6.5,1,.6s.8.2,1.3.2.8,0,1.2-.2.8-.4,1.1-.7l.6.9c-.4.3-.9.6-1.4.8s-1.1.3-1.6.3ZM15.1,206.3v-3h1.1v3.1h-1.1Z"/>
    <path d="M19.5,206.4h4.6v1h-5.8v-8h5.6v1h-4.5v6ZM19.4,202.9h4.1v1h-4.1v-1Z"/>
    <path d="M28.3,207.5c-.6,0-1.2,0-1.7-.3-.6-.2-1-.4-1.3-.7l.4-.9c.3.3.7.5,1.2.7.5.2,1,.3,1.5.3s.8,0,1.1-.2c.3-.1.5-.3.6-.4s.2-.4.2-.6,0-.5-.3-.7c-.2-.2-.4-.3-.7-.4s-.6-.2-.9-.3c-.3,0-.7-.2-1-.3-.3-.1-.7-.2-.9-.4-.3-.2-.5-.4-.7-.6-.2-.3-.3-.6-.3-1s.1-.8.3-1.1c.2-.3.5-.6,1-.8.5-.2,1-.3,1.7-.3s.9,0,1.4.2c.5.1.8.3,1.2.5l-.4.9c-.3-.2-.7-.4-1.1-.5-.4-.1-.7-.2-1.1-.2s-.8,0-1.1.2c-.3.1-.5.3-.6.5s-.2.4-.2.6,0,.5.3.7c.2.2.4.3.7.4s.6.2.9.3c.3,0,.7.2,1,.3.3,0,.7.2.9.4.3.2.5.4.7.6.2.3.3.6.3,1s-.1.8-.3,1.1c-.2.3-.6.6-1,.8-.5.2-1,.3-1.7.3Z"/>
    <path d="M34.5,207.4v-7h-2.7v-1h6.6v1h-2.7v7h-1.1Z"/>
    <path d="M39.6,207.4v-8h1.1v8h-1.1Z"/>
    <path d="M46.8,207.5c-.6,0-1.2-.1-1.7-.3-.5-.2-1-.5-1.3-.9-.4-.4-.7-.8-.9-1.3-.2-.5-.3-1-.3-1.6s.1-1.1.3-1.6c.2-.5.5-.9.9-1.3.4-.4.8-.7,1.3-.9.5-.2,1.1-.3,1.7-.3s1.2.1,1.7.3,1,.5,1.3.9c.4.4.7.8.9,1.3s.3,1,.3,1.6-.1,1.1-.3,1.6-.5.9-.9,1.3c-.4.4-.8.7-1.3.9s-1.1.3-1.7.3ZM46.8,206.5c.4,0,.9,0,1.2-.2.4-.2.7-.4,1-.6s.5-.6.6-1c.2-.4.2-.8.2-1.2s0-.8-.2-1.2c-.2-.4-.4-.7-.6-1-.3-.3-.6-.5-1-.6-.4-.2-.8-.2-1.2-.2s-.8,0-1.2.2c-.4.2-.7.4-1,.6s-.5.6-.7,1-.2.8-.2,1.2,0,.8.2,1.2c.2.4.4.7.7,1,.3.3.6.5,1,.6.4.2.8.2,1.2.2ZM45.9,198.8l1.5-1.5h1.4l-1.9,1.5h-1Z"/>
    <path d="M52.7,207.4v-8h.9l5.3,6.5h-.5v-6.5h1.1v8h-.9l-5.3-6.5h.5v6.5h-1.1Z"/>
    <path d="M68.6,207.5c-.6,0-1.2-.1-1.7-.3-.5-.2-1-.5-1.3-.9-.4-.4-.7-.8-.9-1.3-.2-.5-.3-1-.3-1.6s.1-1.1.3-1.6c.2-.5.5-.9.9-1.3.4-.4.8-.7,1.3-.9s1.1-.3,1.7-.3,1.2.1,1.7.3c.5.2,1,.5,1.3.9l-.7.7c-.3-.3-.6-.6-1-.7-.4-.2-.8-.2-1.2-.2s-.9,0-1.2.2c-.4.2-.7.4-1,.6-.3.3-.5.6-.7,1-.2.4-.2.8-.2,1.2s0,.8.2,1.2c.2.4.4.7.7,1,.3.3.6.5,1,.6.4.2.8.2,1.2.2s.8,0,1.2-.2c.4-.2.7-.4,1-.7l.7.7c-.4.4-.8.7-1.3.9-.5.2-1.1.3-1.7.3Z"/>
    <path d="M73.2,207.4v-8h1.1v8h-1.1Z"/>
    <path d="M80.1,207.5c-1,0-1.9-.3-2.5-.9s-.9-1.5-.9-2.6v-4.5h1.1v4.5c0,.9.2,1.5.6,1.9.4.4.9.6,1.7.6s1.3-.2,1.7-.6c.4-.4.6-1.1.6-1.9v-4.5h1.1v4.5c0,1.2-.3,2-.9,2.6-.6.6-1.4.9-2.5.9Z"/>
    <path d="M85.8,207.4v-8h3.4c.8,0,1.6.2,2.2.5s1.2.8,1.5,1.4.5,1.3.5,2.1-.2,1.5-.5,2.1c-.4.6-.9,1.1-1.5,1.4s-1.4.5-2.2.5h-3.4ZM86.9,206.4h2.2c.7,0,1.2-.1,1.7-.4.5-.3.9-.6,1.1-1.1.3-.5.4-1,.4-1.6s-.1-1.1-.4-1.6c-.3-.4-.6-.8-1.1-1-.5-.2-1.1-.4-1.7-.4h-2.2v6Z"/>
    <path d="M93.9,207.4l3.6-8h1.1l3.6,8h-1.2l-3.2-7.3h.5l-3.2,7.3h-1.2ZM95.4,205.4l.3-.9h4.5l.3.9h-5.1Z"/>
    <path d="M103.4,207.4v-8h3.4c.8,0,1.6.2,2.2.5s1.2.8,1.5,1.4.5,1.3.5,2.1-.2,1.5-.5,2.1c-.4.6-.9,1.1-1.5,1.4s-1.4.5-2.2.5h-3.4ZM104.5,206.4h2.2c.7,0,1.2-.1,1.7-.4.5-.3.9-.6,1.1-1.1.3-.5.4-1,.4-1.6s-.1-1.1-.4-1.6c-.3-.4-.6-.8-1.1-1-.5-.2-1.1-.4-1.7-.4h-2.2v6Z"/>
    <path d="M111.5,207.4l3.6-8h1.1l3.6,8h-1.2l-3.2-7.3h.5l-3.2,7.3h-1.2ZM113,205.4l.3-.9h4.5l.3.9h-5.1Z"/>
    <path d="M121,207.4v-8h.9l5.3,6.5h-.5v-6.5h1.1v8h-.9l-5.3-6.5h.5v6.5h-1.1Z"/>
    <path d="M129,207.4l3.6-8h1.1l3.6,8h-1.2l-3.2-7.3h.5l-3.2,7.3h-1.2ZM130.6,205.4l.3-.9h4.5l.3.9h-5.1Z"/>
    <path d="M141.6,207.4v-8h3.4c.8,0,1.6.2,2.2.5s1.2.8,1.5,1.4.5,1.3.5,2.1-.2,1.5-.5,2.1c-.4.6-.9,1.1-1.5,1.4s-1.4.5-2.2.5h-3.4ZM142.8,206.4h2.2c.7,0,1.2-.1,1.7-.4.5-.3.9-.6,1.1-1.1.3-.5.4-1,.4-1.6s-.1-1.1-.4-1.6c-.3-.4-.6-.8-1.1-1-.5-.2-1.1-.4-1.7-.4h-2.2v6Z"/>
    <path d="M151,207.4v-8h1.1v8h-1.1Z"/>
    <path d="M158.1,207.5c-.6,0-1.2-.1-1.7-.3s-1-.5-1.3-.9c-.4-.4-.7-.8-.9-1.3-.2-.5-.3-1-.3-1.6s.1-1.1.3-1.6c.2-.5.5-.9.9-1.3.4-.4.8-.7,1.3-.9.5-.2,1.1-.3,1.7-.3s1.2.1,1.7.3c.5.2,1,.5,1.3.9l-.7.7c-.3-.3-.7-.6-1.1-.7-.4-.1-.8-.2-1.2-.2s-.9,0-1.3.2-.7.4-1,.6c-.3.3-.5.6-.7,1-.2.4-.2.8-.2,1.2s0,.8.2,1.2c.2.4.4.7.7,1,.3.3.6.5,1,.6s.8.2,1.3.2.8,0,1.2-.2.8-.4,1.1-.7l.6.9c-.4.3-.9.6-1.4.8s-1.1.3-1.6.3ZM160.1,206.3v-3h1.1v3.1h-1.1Z"/>
    <path d="M163.3,207.4v-8h1.1v8h-1.1Z"/>
    <path d="M168.4,207.4v-7h-2.7v-1h6.6v1h-2.7v7h-1.1Z"/>
    <path d="M171.9,207.4l3.6-8h1.1l3.6,8h-1.2l-3.2-7.3h.5l-3.2,7.3h-1.2ZM173.5,205.4l.3-.9h4.5l.3.9h-5.1Z"/>
    <path d="M181.5,207.4v-8h1.1v7h4.3v1h-5.5Z"/>
  </g>
  <path class="st3" d="M63,124.5l23.3-24.7h-27.6c-19.5,0-35.4-16.8-35.4-37.6s9.4-37.6,28.9-37.6h0C44.7,9.7,58.6,0,58.6,0,26.2,0,0,27.9,0,62.3s26.2,62.3,58.6,62.3h4.3Z"/>
  <path class="st0" d="M43.9,1.9"/>
  <path class="st2" d="M86.2,99.8l-41.5,44c-1.8,1.9-4.9.5-4.8-2.2l.3-34.7,46-7.2Z"/>
  <path class="st4" d="M95.5,23.1L119,0h-23.5c-20.3,0-36.8,16.2-36.8,36.2s12.3,31.7,28.7,35.3l17.5-19.8c-3.4-1-9.2-2.2-9.2-2.2h-.2c-5.7,0-10.9-3.4-12.8-8.7-3.3-9.3,3.7-17.8,12.7-17.8Z"/>
  <path class="st1" d="M95.9,13.4c-10.2,0-18.4,8.1-18.4,18.1s6.2,15.9,14.4,17.7h.1c-4.2-1.2-7.8-4.2-9.2-8.3-3.3-9.3,3.7-17.8,12.7-17.8l9.9-9.7h-9.4Z"/>
  <path class="st4" d="M102.3,51.1l-17.5,19.8c3.4,1,9.2,2.2,9.2,2.2h.2c5.7,0,10.9,3.4,12.8,8.7,3.1,8.7-2.9,16.8-11.1,17.8l-9.6.2-23.3,24.7h31.3c20.3,0,36.8-18.1,36.8-38.1s-12.3-31.7-28.7-35.3Z"/>
  <path class="st2" d="M62.9,124.5l21.9-23.3h-22.6c-21.5,0-39-17.5-39-39s13-34,30.3-38c3-10.1,9.6-18.7,18.4-24.3h-9.7C27.9,0,0,27.9,0,62.3h0c0,34.4,27.9,62.3,62.3,62.3h.7Z"/>
  <path class="st6" d="M62.2,99.8c-21.5,0-39-16-39-37.6s13-34,30.3-38c2.9-9.8,9.2-18.1,17.5-23.7h-4.6C38.3.6,15.5,23.5,15.5,51.7h0c0,28.2,22.9,51.1,51.1,51.1h16.9l2.8-3h-24Z"/>
  <path class="st1" d="M87.4,71.6h-.2c3.2.9,6.7,1.6,6.7,1.6h.2c5.7,0,10.9,3.4,12.8,8.7,3.1,8.7-2.9,16.8-11.1,17.8l-9.6.2-23.3,24.7h31.3s0,0,0,0c4.8,0,9.4-2.1,12.7-5.6,14.8-15.2,13.6-30.6,5.8-40-8.6-10.5-25.3-7.4-25.3-7.4Z"/>
  <g>
    <rect class="st7" x="146.5" y="67.9" width="12.3" height="12.3" rx="2.4" ry="2.4"/>
    <rect class="st7" x="154.6" y="51.9" width="12.3" height="12.3" rx="2.4" ry="2.4"/>
    <rect class="st7" x="171.3" y="58.1" width="12.3" height="12.3" rx="2.4" ry="2.4"/>
    <rect class="st7" x="165.9" y="76.5" width="8.9" height="8.9" rx="2.4" ry="2.4"/>
    <rect class="st7" x="182.5" y="76.5" width="12.3" height="12.3" rx="2.4" ry="2.4"/>
    <rect class="st7" x="168.7" y="38.2" width="12.3" height="12.3" rx="2.4" ry="2.4"/>
    <rect class="st7" x="188.7" y="39.2" width="8.1" height="8.1" rx="2.4" ry="2.4"/>
  </g>
  <g>
    <path class="st7" d="M159.3,45.1h2.5v-4.6c0-2.5,1-4.7,2.6-6.4-9.4-11.6-23.4-19.4-39.2-20.5h-19.8c0-.1-9.8,9.5-9.8,9.5l28.7.2c15.3,0,28.6,8.9,35,21.8Z"/>
    <path class="st7" d="M168.2,92.3c-3.9,0-7.2-2.5-8.6-5.9-1,.4-2.1.6-3.3.6h-2.1c-4.8,5.7-11,10.2-18.3,12.5-3.5,10.8-11.2,19.8-21.2,25h6.5c22.3,0,41.5-13.2,50.4-32.2h-3.4Z"/>
  </g>
</svg>